<svg width="720" height="720" viewBox="0 0 720 720" fill="none" xmlns="http://www.w3.org/2000/svg">
<path d="M359.5 128C391.125 128 422.415 134.48 451.44 147.04C480.464 159.6 506.607 177.973 528.256 201.027C549.905 224.081 566.601 251.326 577.314 281.082C588.027 310.838 592.529 342.473 590.543 374.036C588.557 405.599 580.126 436.42 565.768 464.599C551.41 492.777 531.431 517.715 507.064 537.874C482.696 558.033 454.456 572.985 424.086 581.808C393.717 590.631 361.861 593.138 330.485 589.175" stroke="#E7E7E9" stroke-width="100"/>
<path d="M370.094 94.7983C301.194 92.064 233.942 116.293 182.617 162.342L274.698 264.975C299.318 242.887 331.577 231.265 364.626 232.576L370.094 94.7983Z" fill="#292426"/>
<mask id="path-3-inside-1" fill="white">
<path d="M359.586 248.59C374.75 248.59 389.753 251.697 403.669 257.719C417.586 263.741 430.121 272.551 440.501 283.605C450.882 294.659 458.887 307.723 464.024 321.99C469.16 336.257 471.319 351.426 470.367 366.56C469.415 381.693 465.372 396.472 458.488 409.983C451.603 423.494 442.024 435.451 430.34 445.117C418.656 454.783 405.116 461.952 390.554 466.182C375.992 470.413 360.718 471.615 345.674 469.715L359.586 359.59V248.59Z"/>
</mask>
<path d="M359.586 248.59C374.75 248.59 389.753 251.697 403.669 257.719C417.586 263.741 430.121 272.551 440.501 283.605C450.882 294.659 458.887 307.723 464.024 321.99C469.16 336.257 471.319 351.426 470.367 366.56C469.415 381.693 465.372 396.472 458.488 409.983C451.603 423.494 442.024 435.451 430.34 445.117C418.656 454.783 405.116 461.952 390.554 466.182C375.992 470.413 360.718 471.615 345.674 469.715L359.586 359.59V248.59Z" stroke="#E7E7E9" stroke-width="200" mask="url(#path-3-inside-1)"/>
<path d="M359.586 94.5859C404.222 94.5859 448.136 105.861 487.251 127.365L420.811 248.218C402.052 237.905 380.993 232.498 359.586 232.498V94.5859Z" fill="#005893"/>
<path d="M486.594 127.005C533.217 152.464 571.113 191.348 595.364 238.611C619.614 285.873 629.101 339.334 622.593 392.055L485.72 375.158C488.841 349.874 484.291 324.236 472.661 301.57C461.031 278.904 442.857 260.256 420.498 248.046L486.594 127.005Z" fill="#80ACC9"/>
<path d="M622.587 392.094C618.319 426.632 607.289 459.99 590.128 490.265C572.967 520.54 550.011 547.139 522.571 568.542C495.131 589.945 463.744 605.734 430.202 615.007C396.66 624.28 361.62 626.856 327.082 622.587L343.999 485.716C360.563 487.763 377.367 486.528 393.453 482.081C409.539 477.634 424.592 470.062 437.751 459.797C450.911 449.533 461.92 436.777 470.15 422.258C478.38 407.739 483.67 391.741 485.717 375.177L622.587 392.094Z" fill="#2FC7F7"/>
<path d="M327.052 622.584C279.952 616.758 235.281 598.39 197.707 569.399C160.132 540.408 131.033 501.858 113.448 457.778L241.544 406.678C249.977 427.818 263.933 446.306 281.953 460.209C299.973 474.112 321.396 482.921 343.983 485.716L327.052 622.584Z" fill="#82DDFA"/>
<path d="M113.486 457.871C92.7311 405.899 88.9623 348.691 102.72 294.446L236.4 328.349C229.802 354.364 231.609 381.799 241.563 406.724L113.486 457.871Z" fill="#CFCFD2"/>
<path d="M102.272 294.372C116.135 240.154 146.806 191.716 189.89 156.001L277.906 262.175C257.244 279.303 242.534 302.533 235.886 328.535L102.272 294.372Z" fill="#949293"/>
<path d="M395.386 356.015C397.743 356.015 399.726 356.727 401.336 358.15C402.946 359.55 403.751 361.51 403.751 364.03C403.751 366.55 402.899 368.522 401.196 369.945C399.516 371.368 397.451 372.08 395.001 372.08C393.018 372.08 391.268 371.637 389.751 370.75C388.234 369.863 387.138 368.557 386.461 366.83L390.591 364.415C391.198 366.375 392.668 367.355 395.001 367.355C396.238 367.355 397.194 367.063 397.871 366.48C398.571 365.873 398.921 365.057 398.921 364.03C398.921 363.027 398.583 362.222 397.906 361.615C397.229 361.008 396.308 360.705 395.141 360.705H387.721L388.701 347.09H402.596V351.605H393.181L392.866 356.015H395.386ZM405.261 371.59V367.985L413.626 359.375C415.493 357.415 416.426 355.782 416.426 354.475C416.426 353.518 416.123 352.748 415.516 352.165C414.933 351.582 414.175 351.29 413.241 351.29C411.398 351.29 410.033 352.247 409.146 354.16L405.086 351.78C405.856 350.1 406.965 348.817 408.411 347.93C409.858 347.043 411.445 346.6 413.171 346.6C415.388 346.6 417.29 347.3 418.876 348.7C420.463 350.077 421.256 351.943 421.256 354.3C421.256 356.843 419.915 359.457 417.231 362.14L412.436 366.935H421.641V371.59H405.261ZM434.258 356.505C433.138 357.602 431.738 358.15 430.058 358.15C428.378 358.15 426.967 357.59 425.823 356.47C424.703 355.35 424.143 353.985 424.143 352.375C424.143 350.765 424.703 349.4 425.823 348.28C426.967 347.16 428.378 346.6 430.058 346.6C431.738 346.6 433.138 347.16 434.258 348.28C435.378 349.377 435.938 350.742 435.938 352.375C435.938 354.008 435.378 355.385 434.258 356.505ZM426.628 367.88L442.588 350.135L444.723 351.325L428.728 369.105L426.628 367.88ZM428.448 353.985C428.868 354.405 429.393 354.615 430.023 354.615C430.653 354.615 431.178 354.405 431.598 353.985C432.018 353.542 432.228 353.005 432.228 352.375C432.228 351.745 432.018 351.22 431.598 350.8C431.178 350.38 430.653 350.17 430.023 350.17C429.393 350.17 428.868 350.38 428.448 350.8C428.052 351.22 427.853 351.745 427.853 352.375C427.853 353.005 428.052 353.542 428.448 353.985ZM446.088 370.33C444.968 371.45 443.568 372.01 441.888 372.01C440.208 372.01 438.808 371.45 437.688 370.33C436.568 369.21 436.008 367.845 436.008 366.235C436.008 364.625 436.568 363.26 437.688 362.14C438.808 361.02 440.208 360.46 441.888 360.46C443.568 360.46 444.968 361.02 446.088 362.14C447.208 363.26 447.768 364.625 447.768 366.235C447.768 367.845 447.208 369.21 446.088 370.33ZM440.313 367.845C440.733 368.265 441.258 368.475 441.888 368.475C442.518 368.475 443.032 368.253 443.428 367.81C443.848 367.367 444.058 366.842 444.058 366.235C444.058 365.605 443.848 365.08 443.428 364.66C443.032 364.217 442.518 363.995 441.888 363.995C441.258 363.995 440.733 364.217 440.313 364.66C439.917 365.08 439.718 365.605 439.718 366.235C439.718 366.865 439.917 367.402 440.313 367.845Z" fill="#292426"/>
<path d="M412.336 156.854C413.888 157.782 414.664 159.134 414.664 160.91C414.664 162.462 414.12 163.686 413.032 164.582C411.96 165.478 410.496 165.926 408.64 165.926C406.768 165.926 405.296 165.478 404.224 164.582C403.152 163.686 402.616 162.462 402.616 160.91C402.616 159.134 403.384 157.782 404.92 156.854C403.752 156.006 403.168 154.846 403.168 153.374C403.168 151.822 403.688 150.614 404.728 149.75C405.784 148.886 407.088 148.454 408.64 148.454C410.192 148.454 411.488 148.886 412.528 149.75C413.568 150.614 414.088 151.822 414.088 153.374C414.088 154.862 413.504 156.022 412.336 156.854ZM410.2 152.102C409.8 151.75 409.28 151.574 408.64 151.574C408 151.574 407.48 151.75 407.08 152.102C406.68 152.454 406.48 152.934 406.48 153.542C406.48 154.15 406.68 154.638 407.08 155.006C407.48 155.358 408 155.534 408.64 155.534C409.28 155.534 409.8 155.358 410.2 155.006C410.6 154.638 410.8 154.15 410.8 153.542C410.8 152.934 410.6 152.454 410.2 152.102ZM406.648 162.206C407.16 162.606 407.824 162.806 408.64 162.806C409.456 162.806 410.112 162.606 410.608 162.206C411.12 161.79 411.376 161.214 411.376 160.478C411.376 159.758 411.12 159.198 410.608 158.798C410.112 158.382 409.456 158.174 408.64 158.174C407.824 158.174 407.16 158.382 406.648 158.798C406.152 159.198 405.904 159.758 405.904 160.478C405.904 161.214 406.152 161.79 406.648 162.206ZM423.012 155.246C422.244 155.998 421.284 156.374 420.132 156.374C418.98 156.374 418.012 155.99 417.228 155.222C416.46 154.454 416.076 153.518 416.076 152.414C416.076 151.31 416.46 150.374 417.228 149.606C418.012 148.838 418.98 148.454 420.132 148.454C421.284 148.454 422.244 148.838 423.012 149.606C423.78 150.358 424.164 151.294 424.164 152.414C424.164 153.534 423.78 154.478 423.012 155.246ZM417.78 163.046L428.724 150.878L430.188 151.694L419.22 163.886L417.78 163.046ZM419.028 153.518C419.316 153.806 419.676 153.95 420.108 153.95C420.54 153.95 420.9 153.806 421.188 153.518C421.476 153.214 421.62 152.846 421.62 152.414C421.62 151.982 421.476 151.622 421.188 151.334C420.9 151.046 420.54 150.902 420.108 150.902C419.676 150.902 419.316 151.046 419.028 151.334C418.756 151.622 418.62 151.982 418.62 152.414C418.62 152.846 418.756 153.214 419.028 153.518ZM431.124 164.726C430.356 165.494 429.396 165.878 428.244 165.878C427.092 165.878 426.132 165.494 425.364 164.726C424.596 163.958 424.212 163.022 424.212 161.918C424.212 160.814 424.596 159.878 425.364 159.11C426.132 158.342 427.092 157.958 428.244 157.958C429.396 157.958 430.356 158.342 431.124 159.11C431.892 159.878 432.276 160.814 432.276 161.918C432.276 163.022 431.892 163.958 431.124 164.726ZM427.164 163.022C427.452 163.31 427.812 163.454 428.244 163.454C428.676 163.454 429.028 163.302 429.3 162.998C429.588 162.694 429.732 162.334 429.732 161.918C429.732 161.486 429.588 161.126 429.3 160.838C429.028 160.534 428.676 160.382 428.244 160.382C427.812 160.382 427.452 160.534 427.164 160.838C426.892 161.126 426.756 161.486 426.756 161.918C426.756 162.35 426.892 162.718 427.164 163.022Z" fill="white"/>
<path d="M519.317 246.79H522.197V263.59H518.885V250.294L515.717 251.182L514.901 248.35L519.317 246.79ZM536.638 252.286C536.638 253.582 536.302 254.718 535.63 255.694H535.654L530.422 263.59H526.63L530.374 258.118C528.63 258.086 527.206 257.534 526.102 256.462C525.014 255.374 524.47 253.982 524.47 252.286C524.47 250.574 525.03 249.174 526.15 248.086C527.286 246.998 528.75 246.454 530.542 246.454C532.35 246.454 533.814 246.998 534.934 248.086C536.07 249.158 536.638 250.558 536.638 252.286ZM527.758 252.286C527.758 253.118 528.022 253.782 528.55 254.278C529.094 254.774 529.758 255.022 530.542 255.022C531.358 255.022 532.03 254.774 532.558 254.278C533.086 253.782 533.35 253.118 533.35 252.286C533.35 251.454 533.086 250.798 532.558 250.318C532.03 249.822 531.358 249.574 530.542 249.574C529.758 249.574 529.094 249.822 528.55 250.318C528.022 250.814 527.758 251.47 527.758 252.286ZM545.2 253.246C544.432 253.998 543.472 254.374 542.32 254.374C541.168 254.374 540.2 253.99 539.416 253.222C538.648 252.454 538.264 251.518 538.264 250.414C538.264 249.31 538.648 248.374 539.416 247.606C540.2 246.838 541.168 246.454 542.32 246.454C543.472 246.454 544.432 246.838 545.2 247.606C545.968 248.358 546.352 249.294 546.352 250.414C546.352 251.534 545.968 252.478 545.2 253.246ZM539.968 261.046L550.912 248.878L552.376 249.694L541.408 261.886L539.968 261.046ZM541.216 251.518C541.504 251.806 541.864 251.95 542.296 251.95C542.728 251.95 543.088 251.806 543.376 251.518C543.664 251.214 543.808 250.846 543.808 250.414C543.808 249.982 543.664 249.622 543.376 249.334C543.088 249.046 542.728 248.902 542.296 248.902C541.864 248.902 541.504 249.046 541.216 249.334C540.944 249.622 540.808 249.982 540.808 250.414C540.808 250.846 540.944 251.214 541.216 251.518ZM553.312 262.726C552.544 263.494 551.584 263.878 550.432 263.878C549.28 263.878 548.32 263.494 547.552 262.726C546.784 261.958 546.4 261.022 546.4 259.918C546.4 258.814 546.784 257.878 547.552 257.11C548.32 256.342 549.28 255.958 550.432 255.958C551.584 255.958 552.544 256.342 553.312 257.11C554.08 257.878 554.464 258.814 554.464 259.918C554.464 261.022 554.08 261.958 553.312 262.726ZM549.352 261.022C549.64 261.31 550 261.454 550.432 261.454C550.864 261.454 551.216 261.302 551.488 260.998C551.776 260.694 551.92 260.334 551.92 259.918C551.92 259.486 551.776 259.126 551.488 258.838C551.216 258.534 550.864 258.382 550.432 258.382C550 258.382 549.64 258.534 549.352 258.838C549.08 259.126 548.944 259.486 548.944 259.918C548.944 260.35 549.08 260.718 549.352 261.022Z" fill="white"/>
<path d="M457.496 514.59V512.118L463.232 506.214C464.512 504.87 465.152 503.75 465.152 502.854C465.152 502.198 464.944 501.67 464.528 501.27C464.128 500.87 463.608 500.67 462.968 500.67C461.704 500.67 460.768 501.326 460.16 502.638L457.376 501.006C457.904 499.854 458.664 498.974 459.656 498.366C460.648 497.758 461.736 497.454 462.92 497.454C464.44 497.454 465.744 497.934 466.832 498.894C467.92 499.838 468.464 501.118 468.464 502.734C468.464 504.478 467.544 506.27 465.704 508.11L462.416 511.398H468.728V514.59H457.496ZM476.013 503.91C477.629 503.91 478.989 504.398 480.093 505.374C481.197 506.334 481.749 507.678 481.749 509.406C481.749 511.134 481.165 512.486 479.997 513.462C478.845 514.438 477.429 514.926 475.749 514.926C474.389 514.926 473.189 514.622 472.149 514.014C471.109 513.406 470.357 512.51 469.893 511.326L472.725 509.67C473.141 511.014 474.149 511.686 475.749 511.686C476.597 511.686 477.253 511.486 477.717 511.086C478.197 510.67 478.437 510.11 478.437 509.406C478.437 508.718 478.205 508.166 477.741 507.75C477.277 507.334 476.645 507.126 475.845 507.126H470.757L471.429 497.79H480.957V500.886H474.501L474.285 503.91H476.013ZM489.989 504.246C489.221 504.998 488.261 505.374 487.109 505.374C485.957 505.374 484.989 504.99 484.205 504.222C483.437 503.454 483.053 502.518 483.053 501.414C483.053 500.31 483.437 499.374 484.205 498.606C484.989 497.838 485.957 497.454 487.109 497.454C488.261 497.454 489.221 497.838 489.989 498.606C490.757 499.358 491.141 500.294 491.141 501.414C491.141 502.534 490.757 503.478 489.989 504.246ZM484.757 512.046L495.701 499.878L497.165 500.694L486.197 512.886L484.757 512.046ZM486.005 502.518C486.293 502.806 486.653 502.95 487.085 502.95C487.517 502.95 487.877 502.806 488.165 502.518C488.453 502.214 488.597 501.846 488.597 501.414C488.597 500.982 488.453 500.622 488.165 500.334C487.877 500.046 487.517 499.902 487.085 499.902C486.653 499.902 486.293 500.046 486.005 500.334C485.733 500.622 485.597 500.982 485.597 501.414C485.597 501.846 485.733 502.214 486.005 502.518ZM498.101 513.726C497.333 514.494 496.373 514.878 495.221 514.878C494.069 514.878 493.109 514.494 492.341 513.726C491.573 512.958 491.189 512.022 491.189 510.918C491.189 509.814 491.573 508.878 492.341 508.11C493.109 507.342 494.069 506.958 495.221 506.958C496.373 506.958 497.333 507.342 498.101 508.11C498.869 508.878 499.253 509.814 499.253 510.918C499.253 512.022 498.869 512.958 498.101 513.726ZM494.141 512.022C494.429 512.31 494.789 512.454 495.221 512.454C495.653 512.454 496.005 512.302 496.277 511.998C496.565 511.694 496.709 511.334 496.709 510.918C496.709 510.486 496.565 510.126 496.277 509.838C496.005 509.534 495.653 509.382 495.221 509.382C494.789 509.382 494.429 509.534 494.141 509.838C493.869 510.126 493.733 510.486 493.733 510.918C493.733 511.35 493.869 511.718 494.141 512.022Z" fill="white"/>
<path d="M233.567 497.79H236.447V514.59H233.135V501.294L229.967 502.182L229.151 499.35L233.567 497.79ZM238.48 497.79H249.328V500.598L243.64 514.59H240.136L245.656 500.958H238.48V497.79ZM257.95 504.246C257.182 504.998 256.222 505.374 255.07 505.374C253.918 505.374 252.95 504.99 252.166 504.222C251.398 503.454 251.014 502.518 251.014 501.414C251.014 500.31 251.398 499.374 252.166 498.606C252.95 497.838 253.918 497.454 255.07 497.454C256.222 497.454 257.182 497.838 257.95 498.606C258.718 499.358 259.102 500.294 259.102 501.414C259.102 502.534 258.718 503.478 257.95 504.246ZM252.718 512.046L263.662 499.878L265.126 500.694L254.158 512.886L252.718 512.046ZM253.966 502.518C254.254 502.806 254.614 502.95 255.046 502.95C255.478 502.95 255.838 502.806 256.126 502.518C256.414 502.214 256.558 501.846 256.558 501.414C256.558 500.982 256.414 500.622 256.126 500.334C255.838 500.046 255.478 499.902 255.046 499.902C254.614 499.902 254.254 500.046 253.966 500.334C253.694 500.622 253.558 500.982 253.558 501.414C253.558 501.846 253.694 502.214 253.966 502.518ZM266.062 513.726C265.294 514.494 264.334 514.878 263.182 514.878C262.03 514.878 261.07 514.494 260.302 513.726C259.534 512.958 259.15 512.022 259.15 510.918C259.15 509.814 259.534 508.878 260.302 508.11C261.07 507.342 262.03 506.958 263.182 506.958C264.334 506.958 265.294 507.342 266.062 508.11C266.83 508.878 267.214 509.814 267.214 510.918C267.214 512.022 266.83 512.958 266.062 513.726ZM262.102 512.022C262.39 512.31 262.75 512.454 263.182 512.454C263.614 512.454 263.966 512.302 264.238 511.998C264.526 511.694 264.67 511.334 264.67 510.918C264.67 510.486 264.526 510.126 264.238 509.838C263.966 509.534 263.614 509.382 263.182 509.382C262.75 509.382 262.39 509.534 262.102 509.838C261.83 510.126 261.694 510.486 261.694 510.918C261.694 511.35 261.83 511.718 262.102 512.022Z" fill="white"/>
<path d="M145.625 362.79H148.505V379.59H145.193V366.294L142.025 367.182L141.209 364.35L145.625 362.79ZM157.787 379.926C155.691 379.926 154.043 379.134 152.843 377.55C151.659 375.95 151.067 373.83 151.067 371.19C151.067 368.55 151.659 366.438 152.843 364.854C154.043 363.254 155.691 362.454 157.787 362.454C159.899 362.454 161.547 363.254 162.731 364.854C163.915 366.438 164.507 368.55 164.507 371.19C164.507 373.83 163.915 375.95 162.731 377.55C161.547 379.134 159.899 379.926 157.787 379.926ZM155.243 375.294C155.819 376.222 156.667 376.686 157.787 376.686C158.907 376.686 159.755 376.214 160.331 375.27C160.923 374.326 161.219 372.966 161.219 371.19C161.219 369.398 160.923 368.03 160.331 367.086C159.755 366.142 158.907 365.67 157.787 365.67C156.667 365.67 155.819 366.142 155.243 367.086C154.667 368.03 154.379 369.398 154.379 371.19C154.379 372.982 154.667 374.35 155.243 375.294ZM172.891 369.246C172.123 369.998 171.163 370.374 170.011 370.374C168.859 370.374 167.891 369.99 167.107 369.222C166.339 368.454 165.955 367.518 165.955 366.414C165.955 365.31 166.339 364.374 167.107 363.606C167.891 362.838 168.859 362.454 170.011 362.454C171.163 362.454 172.123 362.838 172.891 363.606C173.659 364.358 174.043 365.294 174.043 366.414C174.043 367.534 173.659 368.478 172.891 369.246ZM167.659 377.046L178.603 364.878L180.067 365.694L169.099 377.886L167.659 377.046ZM168.907 367.518C169.195 367.806 169.555 367.95 169.987 367.95C170.419 367.95 170.779 367.806 171.067 367.518C171.355 367.214 171.499 366.846 171.499 366.414C171.499 365.982 171.355 365.622 171.067 365.334C170.779 365.046 170.419 364.902 169.987 364.902C169.555 364.902 169.195 365.046 168.907 365.334C168.635 365.622 168.499 365.982 168.499 366.414C168.499 366.846 168.635 367.214 168.907 367.518ZM181.003 378.726C180.235 379.494 179.275 379.878 178.123 379.878C176.971 379.878 176.011 379.494 175.243 378.726C174.475 377.958 174.091 377.022 174.091 375.918C174.091 374.814 174.475 373.878 175.243 373.11C176.011 372.342 176.971 371.958 178.123 371.958C179.275 371.958 180.235 372.342 181.003 373.11C181.771 373.878 182.155 374.814 182.155 375.918C182.155 377.022 181.771 377.958 181.003 378.726ZM177.043 377.022C177.331 377.31 177.691 377.454 178.123 377.454C178.555 377.454 178.907 377.302 179.179 376.998C179.467 376.694 179.611 376.334 179.611 375.918C179.611 375.486 179.467 375.126 179.179 374.838C178.907 374.534 178.555 374.382 178.123 374.382C177.691 374.382 177.331 374.534 177.043 374.838C176.771 375.126 176.635 375.486 176.635 375.918C176.635 376.35 176.771 376.718 177.043 377.022Z" fill="white"/>
<path d="M171.625 237.79H174.505V254.59H171.193V241.294L168.025 242.182L167.209 239.35L171.625 237.79ZM183.787 254.926C181.691 254.926 180.043 254.134 178.843 252.55C177.659 250.95 177.067 248.83 177.067 246.19C177.067 243.55 177.659 241.438 178.843 239.854C180.043 238.254 181.691 237.454 183.787 237.454C185.899 237.454 187.547 238.254 188.731 239.854C189.915 241.438 190.507 243.55 190.507 246.19C190.507 248.83 189.915 250.95 188.731 252.55C187.547 254.134 185.899 254.926 183.787 254.926ZM181.243 250.294C181.819 251.222 182.667 251.686 183.787 251.686C184.907 251.686 185.755 251.214 186.331 250.27C186.923 249.326 187.219 247.966 187.219 246.19C187.219 244.398 186.923 243.03 186.331 242.086C185.755 241.142 184.907 240.67 183.787 240.67C182.667 240.67 181.819 241.142 181.243 242.086C180.667 243.03 180.379 244.398 180.379 246.19C180.379 247.982 180.667 249.35 181.243 250.294ZM198.891 244.246C198.123 244.998 197.163 245.374 196.011 245.374C194.859 245.374 193.891 244.99 193.107 244.222C192.339 243.454 191.955 242.518 191.955 241.414C191.955 240.31 192.339 239.374 193.107 238.606C193.891 237.838 194.859 237.454 196.011 237.454C197.163 237.454 198.123 237.838 198.891 238.606C199.659 239.358 200.043 240.294 200.043 241.414C200.043 242.534 199.659 243.478 198.891 244.246ZM193.659 252.046L204.603 239.878L206.067 240.694L195.099 252.886L193.659 252.046ZM194.907 242.518C195.195 242.806 195.555 242.95 195.987 242.95C196.419 242.95 196.779 242.806 197.067 242.518C197.355 242.214 197.499 241.846 197.499 241.414C197.499 240.982 197.355 240.622 197.067 240.334C196.779 240.046 196.419 239.902 195.987 239.902C195.555 239.902 195.195 240.046 194.907 240.334C194.635 240.622 194.499 240.982 194.499 241.414C194.499 241.846 194.635 242.214 194.907 242.518ZM207.003 253.726C206.235 254.494 205.275 254.878 204.123 254.878C202.971 254.878 202.011 254.494 201.243 253.726C200.475 252.958 200.091 252.022 200.091 250.918C200.091 249.814 200.475 248.878 201.243 248.11C202.011 247.342 202.971 246.958 204.123 246.958C205.275 246.958 206.235 247.342 207.003 248.11C207.771 248.878 208.155 249.814 208.155 250.918C208.155 252.022 207.771 252.958 207.003 253.726ZM203.043 252.022C203.331 252.31 203.691 252.454 204.123 252.454C204.555 252.454 204.907 252.302 205.179 251.998C205.467 251.694 205.611 251.334 205.611 250.918C205.611 250.486 205.467 250.126 205.179 249.838C204.907 249.534 204.555 249.382 204.123 249.382C203.691 249.382 203.331 249.534 203.043 249.838C202.771 250.126 202.635 250.486 202.635 250.918C202.635 251.35 202.771 251.718 203.043 252.022Z" fill="white"/>
<path d="M280.309 160.79H283.189V177.59H279.877V164.294L276.709 165.182L275.893 162.35L280.309 160.79ZM289.59 160.79H292.47V177.59H289.158V164.294L285.99 165.182L285.174 162.35L289.59 160.79ZM302.207 167.246C301.439 167.998 300.479 168.374 299.327 168.374C298.175 168.374 297.207 167.99 296.423 167.222C295.655 166.454 295.271 165.518 295.271 164.414C295.271 163.31 295.655 162.374 296.423 161.606C297.207 160.838 298.175 160.454 299.327 160.454C300.479 160.454 301.439 160.838 302.207 161.606C302.975 162.358 303.359 163.294 303.359 164.414C303.359 165.534 302.975 166.478 302.207 167.246ZM296.975 175.046L307.919 162.878L309.383 163.694L298.415 175.886L296.975 175.046ZM298.223 165.518C298.511 165.806 298.871 165.95 299.303 165.95C299.735 165.95 300.095 165.806 300.383 165.518C300.671 165.214 300.815 164.846 300.815 164.414C300.815 163.982 300.671 163.622 300.383 163.334C300.095 163.046 299.735 162.902 299.303 162.902C298.871 162.902 298.511 163.046 298.223 163.334C297.951 163.622 297.815 163.982 297.815 164.414C297.815 164.846 297.951 165.214 298.223 165.518ZM310.319 176.726C309.551 177.494 308.591 177.878 307.439 177.878C306.287 177.878 305.327 177.494 304.559 176.726C303.791 175.958 303.407 175.022 303.407 173.918C303.407 172.814 303.791 171.878 304.559 171.11C305.327 170.342 306.287 169.958 307.439 169.958C308.591 169.958 309.551 170.342 310.319 171.11C311.087 171.878 311.471 172.814 311.471 173.918C311.471 175.022 311.087 175.958 310.319 176.726ZM306.359 175.022C306.647 175.31 307.007 175.454 307.439 175.454C307.871 175.454 308.223 175.302 308.495 174.998C308.783 174.694 308.927 174.334 308.927 173.918C308.927 173.486 308.783 173.126 308.495 172.838C308.223 172.534 307.871 172.382 307.439 172.382C307.007 172.382 306.647 172.534 306.359 172.838C306.087 173.126 305.951 173.486 305.951 173.918C305.951 174.35 306.087 174.718 306.359 175.022Z" fill="white"/>
<path d="M515.775 290.59V289.456L520.311 284.884C521.607 283.588 522.255 282.478 522.255 281.554C522.255 280.75 522.003 280.126 521.499 279.682C521.007 279.226 520.413 278.998 519.717 278.998C518.421 278.998 517.479 279.592 516.891 280.78L515.829 280.15C516.225 279.37 516.765 278.782 517.449 278.386C518.133 277.978 518.889 277.774 519.717 277.774C520.725 277.774 521.607 278.116 522.363 278.8C523.131 279.472 523.515 280.39 523.515 281.554C523.515 282.286 523.311 282.988 522.903 283.66C522.495 284.332 521.919 285.04 521.175 285.784L517.575 289.366H523.785V290.59H515.775ZM533.516 289.042C532.688 290.218 531.518 290.806 530.006 290.806C528.494 290.806 527.318 290.218 526.478 289.042C525.65 287.854 525.236 286.27 525.236 284.29C525.236 282.31 525.65 280.732 526.478 279.556C527.318 278.368 528.494 277.774 530.006 277.774C531.518 277.774 532.688 278.368 533.516 279.556C534.356 280.732 534.776 282.31 534.776 284.29C534.776 286.27 534.356 287.854 533.516 289.042ZM527.414 288.196C528.038 289.12 528.902 289.582 530.006 289.582C531.11 289.582 531.968 289.12 532.58 288.196C533.204 287.272 533.516 285.97 533.516 284.29C533.516 282.61 533.204 281.308 532.58 280.384C531.968 279.46 531.11 278.998 530.006 278.998C528.902 278.998 528.038 279.46 527.414 280.384C526.802 281.308 526.496 282.61 526.496 284.29C526.496 285.97 526.802 287.272 527.414 288.196ZM536.218 290.59V289.456L540.754 284.884C542.05 283.588 542.698 282.478 542.698 281.554C542.698 280.75 542.446 280.126 541.942 279.682C541.45 279.226 540.856 278.998 540.16 278.998C538.864 278.998 537.922 279.592 537.334 280.78L536.272 280.15C536.668 279.37 537.208 278.782 537.892 278.386C538.576 277.978 539.332 277.774 540.16 277.774C541.168 277.774 542.05 278.116 542.806 278.8C543.574 279.472 543.958 280.39 543.958 281.554C543.958 282.286 543.754 282.988 543.346 283.66C542.938 284.332 542.362 285.04 541.618 285.784L538.018 289.366H544.228V290.59H536.218ZM553.959 289.042C553.131 290.218 551.961 290.806 550.449 290.806C548.937 290.806 547.761 290.218 546.921 289.042C546.093 287.854 545.679 286.27 545.679 284.29C545.679 282.31 546.093 280.732 546.921 279.556C547.761 278.368 548.937 277.774 550.449 277.774C551.961 277.774 553.131 278.368 553.959 279.556C554.799 280.732 555.219 282.31 555.219 284.29C555.219 286.27 554.799 287.854 553.959 289.042ZM547.857 288.196C548.481 289.12 549.345 289.582 550.449 289.582C551.553 289.582 552.411 289.12 553.023 288.196C553.647 287.272 553.959 285.97 553.959 284.29C553.959 282.61 553.647 281.308 553.023 280.384C552.411 279.46 551.553 278.998 550.449 278.998C549.345 278.998 548.481 279.46 547.857 280.384C547.245 281.308 546.939 282.61 546.939 284.29C546.939 285.97 547.245 287.272 547.857 288.196Z" fill="white"/>
<path d="M437.542 541.59V540.456L442.078 535.884C443.374 534.588 444.022 533.478 444.022 532.554C444.022 531.75 443.77 531.126 443.266 530.682C442.774 530.226 442.18 529.998 441.484 529.998C440.188 529.998 439.246 530.592 438.658 531.78L437.596 531.15C437.992 530.37 438.532 529.782 439.216 529.386C439.9 528.978 440.656 528.774 441.484 528.774C442.492 528.774 443.374 529.116 444.13 529.8C444.898 530.472 445.282 531.39 445.282 532.554C445.282 533.286 445.078 533.988 444.67 534.66C444.262 535.332 443.686 536.04 442.942 536.784L439.342 540.366H445.552V541.59H437.542ZM455.284 540.042C454.456 541.218 453.286 541.806 451.774 541.806C450.262 541.806 449.086 541.218 448.246 540.042C447.418 538.854 447.004 537.27 447.004 535.29C447.004 533.31 447.418 531.732 448.246 530.556C449.086 529.368 450.262 528.774 451.774 528.774C453.286 528.774 454.456 529.368 455.284 530.556C456.124 531.732 456.544 533.31 456.544 535.29C456.544 537.27 456.124 538.854 455.284 540.042ZM449.182 539.196C449.806 540.12 450.67 540.582 451.774 540.582C452.878 540.582 453.736 540.12 454.348 539.196C454.972 538.272 455.284 536.97 455.284 535.29C455.284 533.61 454.972 532.308 454.348 531.384C453.736 530.46 452.878 529.998 451.774 529.998C450.67 529.998 449.806 530.46 449.182 531.384C448.57 532.308 448.264 533.61 448.264 535.29C448.264 536.97 448.57 538.272 449.182 539.196ZM460.69 528.99H461.77V541.59H460.51V530.376L457.684 531.222L457.36 530.142L460.69 528.99ZM470.263 535.092C470.899 535.392 471.403 535.812 471.775 536.352C472.159 536.88 472.351 537.486 472.351 538.17C472.351 539.31 471.949 540.204 471.145 540.852C470.341 541.488 469.339 541.806 468.139 541.806C466.939 541.806 465.937 541.488 465.133 540.852C464.329 540.204 463.927 539.31 463.927 538.17C463.927 537.486 464.113 536.88 464.485 536.352C464.869 535.812 465.379 535.392 466.015 535.092C464.899 534.456 464.341 533.514 464.341 532.266C464.341 531.138 464.713 530.274 465.457 529.674C466.213 529.074 467.107 528.774 468.139 528.774C469.171 528.774 470.059 529.074 470.803 529.674C471.559 530.274 471.937 531.138 471.937 532.266C471.937 533.514 471.379 534.456 470.263 535.092ZM469.939 530.556C469.459 530.184 468.859 529.998 468.139 529.998C467.419 529.998 466.813 530.184 466.321 530.556C465.841 530.928 465.601 531.498 465.601 532.266C465.601 532.986 465.847 533.544 466.339 533.94C466.843 534.336 467.443 534.534 468.139 534.534C468.835 534.534 469.429 534.336 469.921 533.94C470.425 533.544 470.677 532.986 470.677 532.266C470.677 531.498 470.431 530.928 469.939 530.556ZM465.997 539.97C466.537 540.378 467.251 540.582 468.139 540.582C469.027 540.582 469.741 540.378 470.281 539.97C470.821 539.55 471.091 538.95 471.091 538.17C471.091 537.39 470.821 536.796 470.281 536.388C469.741 535.968 469.027 535.758 468.139 535.758C467.251 535.758 466.537 535.968 465.997 536.388C465.457 536.796 465.187 537.39 465.187 538.17C465.187 538.95 465.457 539.55 465.997 539.97ZM474.508 536.604V535.452H480.988V536.604H474.508ZM483.14 541.59V540.456L487.676 535.884C488.972 534.588 489.62 533.478 489.62 532.554C489.62 531.75 489.368 531.126 488.864 530.682C488.372 530.226 487.778 529.998 487.082 529.998C485.786 529.998 484.844 530.592 484.256 531.78L483.194 531.15C483.59 530.37 484.13 529.782 484.814 529.386C485.498 528.978 486.254 528.774 487.082 528.774C488.09 528.774 488.972 529.116 489.728 529.8C490.496 530.472 490.88 531.39 490.88 532.554C490.88 533.286 490.676 533.988 490.268 534.66C489.86 535.332 489.284 536.04 488.54 536.784L484.94 540.366H491.15V541.59H483.14ZM500.881 540.042C500.053 541.218 498.883 541.806 497.371 541.806C495.859 541.806 494.683 541.218 493.843 540.042C493.015 538.854 492.601 537.27 492.601 535.29C492.601 533.31 493.015 531.732 493.843 530.556C494.683 529.368 495.859 528.774 497.371 528.774C498.883 528.774 500.053 529.368 500.881 530.556C501.721 531.732 502.141 533.31 502.141 535.29C502.141 537.27 501.721 538.854 500.881 540.042ZM494.779 539.196C495.403 540.12 496.267 540.582 497.371 540.582C498.475 540.582 499.333 540.12 499.945 539.196C500.569 538.272 500.881 536.97 500.881 535.29C500.881 533.61 500.569 532.308 499.945 531.384C499.333 530.46 498.475 529.998 497.371 529.998C496.267 529.998 495.403 530.46 494.779 531.384C494.167 532.308 493.861 533.61 493.861 535.29C493.861 536.97 494.167 538.272 494.779 539.196ZM506.288 528.99H507.368V541.59H506.108V530.376L503.281 531.222L502.958 530.142L506.288 528.99ZM517.805 532.932C517.805 533.88 517.547 534.72 517.031 535.452L512.909 541.59H511.487L514.583 536.982C514.259 537.054 513.923 537.09 513.575 537.09C512.339 537.09 511.325 536.706 510.533 535.938C509.741 535.158 509.345 534.156 509.345 532.932C509.345 531.708 509.741 530.712 510.533 529.944C511.325 529.164 512.339 528.774 513.575 528.774C514.811 528.774 515.825 529.164 516.617 529.944C517.409 530.712 517.805 531.708 517.805 532.932ZM511.415 530.808C510.875 531.348 510.605 532.056 510.605 532.932C510.605 533.808 510.875 534.516 511.415 535.056C511.967 535.596 512.687 535.866 513.575 535.866C514.463 535.866 515.177 535.596 515.717 535.056C516.269 534.516 516.545 533.808 516.545 532.932C516.545 532.056 516.269 531.348 515.717 530.808C515.177 530.268 514.463 529.998 513.575 529.998C512.687 529.998 511.967 530.268 511.415 530.808Z" fill="white"/>
<path d="M209.473 541.59V540.456L214.009 535.884C215.305 534.588 215.953 533.478 215.953 532.554C215.953 531.75 215.701 531.126 215.197 530.682C214.705 530.226 214.111 529.998 213.415 529.998C212.119 529.998 211.177 530.592 210.589 531.78L209.527 531.15C209.923 530.37 210.463 529.782 211.147 529.386C211.831 528.978 212.587 528.774 213.415 528.774C214.423 528.774 215.305 529.116 216.061 529.8C216.829 530.472 217.213 531.39 217.213 532.554C217.213 533.286 217.009 533.988 216.601 534.66C216.193 535.332 215.617 536.04 214.873 536.784L211.273 540.366H217.483V541.59H209.473ZM227.214 540.042C226.386 541.218 225.216 541.806 223.704 541.806C222.192 541.806 221.016 541.218 220.176 540.042C219.348 538.854 218.934 537.27 218.934 535.29C218.934 533.31 219.348 531.732 220.176 530.556C221.016 529.368 222.192 528.774 223.704 528.774C225.216 528.774 226.386 529.368 227.214 530.556C228.054 531.732 228.474 533.31 228.474 535.29C228.474 537.27 228.054 538.854 227.214 540.042ZM221.112 539.196C221.736 540.12 222.6 540.582 223.704 540.582C224.808 540.582 225.666 540.12 226.278 539.196C226.902 538.272 227.214 536.97 227.214 535.29C227.214 533.61 226.902 532.308 226.278 531.384C225.666 530.46 224.808 529.998 223.704 529.998C222.6 529.998 221.736 530.46 221.112 531.384C220.5 532.308 220.194 533.61 220.194 535.29C220.194 536.97 220.5 538.272 221.112 539.196ZM232.621 528.99H233.701V541.59H232.441V530.376L229.615 531.222L229.291 530.142L232.621 528.99ZM239.908 534.066C241.084 534.066 242.08 534.414 242.896 535.11C243.724 535.794 244.138 536.736 244.138 537.936C244.138 539.136 243.724 540.084 242.896 540.78C242.08 541.464 241.084 541.806 239.908 541.806C238.96 541.806 238.114 541.578 237.37 541.122C236.626 540.654 236.122 539.988 235.858 539.124L236.92 538.512C237.1 539.184 237.454 539.7 237.982 540.06C238.522 540.408 239.164 540.582 239.908 540.582C240.772 540.582 241.48 540.354 242.032 539.898C242.596 539.43 242.878 538.776 242.878 537.936C242.878 537.096 242.596 536.448 242.032 535.992C241.48 535.524 240.772 535.29 239.908 535.29H236.488L236.938 528.99H243.688V530.178H238.054L237.784 534.066H239.908ZM246.298 536.604V535.452H252.778V536.604H246.298ZM254.93 541.59V540.456L259.466 535.884C260.762 534.588 261.41 533.478 261.41 532.554C261.41 531.75 261.158 531.126 260.654 530.682C260.162 530.226 259.568 529.998 258.872 529.998C257.576 529.998 256.634 530.592 256.046 531.78L254.984 531.15C255.38 530.37 255.92 529.782 256.604 529.386C257.288 528.978 258.044 528.774 258.872 528.774C259.88 528.774 260.762 529.116 261.518 529.8C262.286 530.472 262.67 531.39 262.67 532.554C262.67 533.286 262.466 533.988 262.058 534.66C261.65 535.332 261.074 536.04 260.33 536.784L256.73 540.366H262.94V541.59H254.93ZM272.671 540.042C271.843 541.218 270.673 541.806 269.161 541.806C267.649 541.806 266.473 541.218 265.633 540.042C264.805 538.854 264.391 537.27 264.391 535.29C264.391 533.31 264.805 531.732 265.633 530.556C266.473 529.368 267.649 528.774 269.161 528.774C270.673 528.774 271.843 529.368 272.671 530.556C273.511 531.732 273.931 533.31 273.931 535.29C273.931 537.27 273.511 538.854 272.671 540.042ZM266.569 539.196C267.193 540.12 268.057 540.582 269.161 540.582C270.265 540.582 271.123 540.12 271.735 539.196C272.359 538.272 272.671 536.97 272.671 535.29C272.671 533.61 272.359 532.308 271.735 531.384C271.123 530.46 270.265 529.998 269.161 529.998C268.057 529.998 267.193 530.46 266.569 531.384C265.957 532.308 265.651 533.61 265.651 535.29C265.651 536.97 265.957 538.272 266.569 539.196ZM278.078 528.99H279.158V541.59H277.898V530.376L275.072 531.222L274.748 530.142L278.078 528.99ZM280.955 528.99H288.695V530.178L283.943 541.59H282.629L287.381 530.178H280.955V528.99Z" fill="white"/>
<path d="M121.796 406.59V405.456L126.332 400.884C127.628 399.588 128.276 398.478 128.276 397.554C128.276 396.75 128.024 396.126 127.52 395.682C127.028 395.226 126.434 394.998 125.738 394.998C124.442 394.998 123.5 395.592 122.912 396.78L121.85 396.15C122.246 395.37 122.786 394.782 123.47 394.386C124.154 393.978 124.91 393.774 125.738 393.774C126.746 393.774 127.628 394.116 128.384 394.8C129.152 395.472 129.536 396.39 129.536 397.554C129.536 398.286 129.332 398.988 128.924 399.66C128.516 400.332 127.94 401.04 127.196 401.784L123.596 405.366H129.806V406.59H121.796ZM139.537 405.042C138.709 406.218 137.539 406.806 136.027 406.806C134.515 406.806 133.339 406.218 132.499 405.042C131.671 403.854 131.257 402.27 131.257 400.29C131.257 398.31 131.671 396.732 132.499 395.556C133.339 394.368 134.515 393.774 136.027 393.774C137.539 393.774 138.709 394.368 139.537 395.556C140.377 396.732 140.797 398.31 140.797 400.29C140.797 402.27 140.377 403.854 139.537 405.042ZM133.435 404.196C134.059 405.12 134.923 405.582 136.027 405.582C137.131 405.582 137.989 405.12 138.601 404.196C139.225 403.272 139.537 401.97 139.537 400.29C139.537 398.61 139.225 397.308 138.601 396.384C137.989 395.46 137.131 394.998 136.027 394.998C134.923 394.998 134.059 395.46 133.435 396.384C132.823 397.308 132.517 398.61 132.517 400.29C132.517 401.97 132.823 403.272 133.435 404.196ZM144.944 393.99H146.024V406.59H144.764V395.376L141.938 396.222L141.614 395.142L144.944 393.99ZM148.181 406.59V405.456L152.717 400.884C154.013 399.588 154.661 398.478 154.661 397.554C154.661 396.75 154.409 396.126 153.905 395.682C153.413 395.226 152.819 394.998 152.123 394.998C150.827 394.998 149.885 395.592 149.297 396.78L148.235 396.15C148.631 395.37 149.171 394.782 149.855 394.386C150.539 393.978 151.295 393.774 152.123 393.774C153.131 393.774 154.013 394.116 154.769 394.8C155.537 395.472 155.921 396.39 155.921 397.554C155.921 398.286 155.717 398.988 155.309 399.66C154.901 400.332 154.325 401.04 153.581 401.784L149.981 405.366H156.191V406.59H148.181ZM158.358 401.604V400.452H164.838V401.604H158.358ZM166.99 406.59V405.456L171.526 400.884C172.822 399.588 173.47 398.478 173.47 397.554C173.47 396.75 173.218 396.126 172.714 395.682C172.222 395.226 171.628 394.998 170.932 394.998C169.636 394.998 168.694 395.592 168.106 396.78L167.044 396.15C167.44 395.37 167.98 394.782 168.664 394.386C169.348 393.978 170.104 393.774 170.932 393.774C171.94 393.774 172.822 394.116 173.578 394.8C174.346 395.472 174.73 396.39 174.73 397.554C174.73 398.286 174.526 398.988 174.118 399.66C173.71 400.332 173.134 401.04 172.39 401.784L168.79 405.366H175V406.59H166.99ZM184.731 405.042C183.903 406.218 182.733 406.806 181.221 406.806C179.709 406.806 178.533 406.218 177.693 405.042C176.865 403.854 176.451 402.27 176.451 400.29C176.451 398.31 176.865 396.732 177.693 395.556C178.533 394.368 179.709 393.774 181.221 393.774C182.733 393.774 183.903 394.368 184.731 395.556C185.571 396.732 185.991 398.31 185.991 400.29C185.991 402.27 185.571 403.854 184.731 405.042ZM178.629 404.196C179.253 405.12 180.117 405.582 181.221 405.582C182.325 405.582 183.183 405.12 183.795 404.196C184.419 403.272 184.731 401.97 184.731 400.29C184.731 398.61 184.419 397.308 183.795 396.384C183.183 395.46 182.325 394.998 181.221 394.998C180.117 394.998 179.253 395.46 178.629 396.384C178.017 397.308 177.711 398.61 177.711 400.29C177.711 401.97 178.017 403.272 178.629 404.196ZM190.137 393.99H191.217V406.59H189.957V395.376L187.131 396.222L186.807 395.142L190.137 393.99ZM202.644 402.882V404.07H201.024V406.59H199.764V404.07H193.104V402.882L197.784 393.99H199.17L194.49 402.882H199.764V399.03H201.024V402.882H202.644Z" fill="white"/>
<path d="M147.008 272.374C148.292 272.374 149.384 272.83 150.284 273.742C151.196 274.654 151.652 275.77 151.652 277.09C151.652 278.41 151.196 279.526 150.284 280.438C149.384 281.35 148.292 281.806 147.008 281.806C145.412 281.806 144.2 281.146 143.372 279.826V285.19H142.184V272.59H143.372V274.354C144.2 273.034 145.412 272.374 147.008 272.374ZM144.398 279.628C145.082 280.312 145.922 280.654 146.918 280.654C147.914 280.654 148.754 280.312 149.438 279.628C150.122 278.932 150.464 278.086 150.464 277.09C150.464 276.094 150.122 275.254 149.438 274.57C148.754 273.874 147.914 273.526 146.918 273.526C145.922 273.526 145.082 273.874 144.398 274.57C143.714 275.254 143.372 276.094 143.372 277.09C143.372 278.086 143.714 278.932 144.398 279.628ZM161.367 272.59H162.555V281.59H161.367V279.826C160.539 281.146 159.327 281.806 157.731 281.806C156.447 281.806 155.349 281.35 154.437 280.438C153.537 279.526 153.087 278.41 153.087 277.09C153.087 275.77 153.537 274.654 154.437 273.742C155.349 272.83 156.447 272.374 157.731 272.374C159.327 272.374 160.539 273.034 161.367 274.354V272.59ZM155.301 279.628C155.985 280.312 156.825 280.654 157.821 280.654C158.817 280.654 159.657 280.312 160.341 279.628C161.025 278.932 161.367 278.086 161.367 277.09C161.367 276.094 161.025 275.254 160.341 274.57C159.657 273.874 158.817 273.526 157.821 273.526C156.825 273.526 155.985 273.874 155.301 274.57C154.617 275.254 154.275 276.094 154.275 277.09C154.275 278.086 154.617 278.932 155.301 279.628ZM171.443 272.59H172.631V281.59H171.443V277.666H166.259V281.59H165.071V272.59H166.259V276.514H171.443V272.59ZM179.301 272.374C180.633 272.374 181.707 272.848 182.523 273.796C183.351 274.732 183.765 275.842 183.765 277.126C183.765 277.258 183.753 277.444 183.729 277.684H175.827C175.947 278.596 176.331 279.322 176.979 279.862C177.639 280.39 178.449 280.654 179.409 280.654C180.093 280.654 180.681 280.516 181.173 280.24C181.677 279.952 182.055 279.58 182.307 279.124L183.351 279.736C182.955 280.372 182.415 280.876 181.731 281.248C181.047 281.62 180.267 281.806 179.391 281.806C177.975 281.806 176.823 281.362 175.935 280.474C175.047 279.586 174.603 278.458 174.603 277.09C174.603 275.746 175.041 274.624 175.917 273.724C176.793 272.824 177.921 272.374 179.301 272.374ZM179.301 273.526C178.365 273.526 177.579 273.808 176.943 274.372C176.319 274.924 175.947 275.644 175.827 276.532H182.541C182.421 275.584 182.055 274.846 181.443 274.318C180.831 273.79 180.117 273.526 179.301 273.526ZM189.813 272.374C191.145 272.374 192.219 272.848 193.035 273.796C193.863 274.732 194.277 275.842 194.277 277.126C194.277 277.258 194.265 277.444 194.241 277.684H186.339C186.459 278.596 186.843 279.322 187.491 279.862C188.151 280.39 188.961 280.654 189.921 280.654C190.605 280.654 191.193 280.516 191.685 280.24C192.189 279.952 192.567 279.58 192.819 279.124L193.863 279.736C193.467 280.372 192.927 280.876 192.243 281.248C191.559 281.62 190.779 281.806 189.903 281.806C188.487 281.806 187.335 281.362 186.447 280.474C185.559 279.586 185.115 278.458 185.115 277.09C185.115 275.746 185.553 274.624 186.429 273.724C187.305 272.824 188.433 272.374 189.813 272.374ZM189.813 273.526C188.877 273.526 188.091 273.808 187.455 274.372C186.831 274.924 186.459 275.644 186.339 276.532H193.053C192.933 275.584 192.567 274.846 191.955 274.318C191.343 273.79 190.629 273.526 189.813 273.526ZM200.126 281.59V280.456L204.662 275.884C205.958 274.588 206.606 273.478 206.606 272.554C206.606 271.75 206.354 271.126 205.85 270.682C205.358 270.226 204.764 269.998 204.068 269.998C202.772 269.998 201.83 270.592 201.242 271.78L200.18 271.15C200.576 270.37 201.116 269.782 201.8 269.386C202.484 268.978 203.24 268.774 204.068 268.774C205.076 268.774 205.958 269.116 206.714 269.8C207.482 270.472 207.866 271.39 207.866 272.554C207.866 273.286 207.662 273.988 207.254 274.66C206.846 275.332 206.27 276.04 205.526 276.784L201.926 280.366H208.136V281.59H200.126ZM217.868 280.042C217.04 281.218 215.87 281.806 214.358 281.806C212.846 281.806 211.67 281.218 210.83 280.042C210.002 278.854 209.588 277.27 209.588 275.29C209.588 273.31 210.002 271.732 210.83 270.556C211.67 269.368 212.846 268.774 214.358 268.774C215.87 268.774 217.04 269.368 217.868 270.556C218.708 271.732 219.128 273.31 219.128 275.29C219.128 277.27 218.708 278.854 217.868 280.042ZM211.766 279.196C212.39 280.12 213.254 280.582 214.358 280.582C215.462 280.582 216.32 280.12 216.932 279.196C217.556 278.272 217.868 276.97 217.868 275.29C217.868 273.61 217.556 272.308 216.932 271.384C216.32 270.46 215.462 269.998 214.358 269.998C213.254 269.998 212.39 270.46 211.766 271.384C211.154 272.308 210.848 273.61 210.848 275.29C210.848 276.97 211.154 278.272 211.766 279.196ZM223.274 268.99H224.354V281.59H223.094V270.376L220.268 271.222L219.944 270.142L223.274 268.99ZM226.511 281.59V280.456L231.047 275.884C232.343 274.588 232.991 273.478 232.991 272.554C232.991 271.75 232.739 271.126 232.235 270.682C231.743 270.226 231.149 269.998 230.453 269.998C229.157 269.998 228.215 270.592 227.627 271.78L226.565 271.15C226.961 270.37 227.501 269.782 228.185 269.386C228.869 268.978 229.625 268.774 230.453 268.774C231.461 268.774 232.343 269.116 233.099 269.8C233.867 270.472 234.251 271.39 234.251 272.554C234.251 273.286 234.047 273.988 233.639 274.66C233.231 275.332 232.655 276.04 231.911 276.784L228.311 280.366H234.521V281.59H226.511Z" fill="white"/>
<path d="M260.278 195.59H261.466V204.59H260.278V200.666H255.094V204.59H253.906V195.59H255.094V199.514H260.278V195.59ZM268.137 195.374C269.469 195.374 270.543 195.848 271.359 196.796C272.187 197.732 272.601 198.842 272.601 200.126C272.601 200.258 272.589 200.444 272.565 200.684H264.663C264.783 201.596 265.167 202.322 265.815 202.862C266.475 203.39 267.285 203.654 268.245 203.654C268.929 203.654 269.517 203.516 270.009 203.24C270.513 202.952 270.891 202.58 271.143 202.124L272.187 202.736C271.791 203.372 271.251 203.876 270.567 204.248C269.883 204.62 269.103 204.806 268.227 204.806C266.811 204.806 265.659 204.362 264.771 203.474C263.883 202.586 263.439 201.458 263.439 200.09C263.439 198.746 263.877 197.624 264.753 196.724C265.629 195.824 266.757 195.374 268.137 195.374ZM268.137 196.526C267.201 196.526 266.415 196.808 265.779 197.372C265.155 197.924 264.783 198.644 264.663 199.532H271.377C271.257 198.584 270.891 197.846 270.279 197.318C269.667 196.79 268.953 196.526 268.137 196.526ZM286.55 195.59V204.59H285.362V196.742H280.178V204.59H278.99V195.59H286.55ZM296.605 203.456C295.693 204.356 294.577 204.806 293.257 204.806C291.937 204.806 290.815 204.356 289.891 203.456C288.979 202.544 288.523 201.422 288.523 200.09C288.523 198.758 288.979 197.642 289.891 196.742C290.815 195.83 291.937 195.374 293.257 195.374C294.577 195.374 295.693 195.83 296.605 196.742C297.529 197.642 297.991 198.758 297.991 200.09C297.991 201.422 297.529 202.544 296.605 203.456ZM290.737 202.628C291.421 203.312 292.261 203.654 293.257 203.654C294.253 203.654 295.093 203.312 295.777 202.628C296.461 201.932 296.803 201.086 296.803 200.09C296.803 199.094 296.461 198.254 295.777 197.57C295.093 196.874 294.253 196.526 293.257 196.526C292.261 196.526 291.421 196.874 290.737 197.57C290.053 198.254 289.711 199.094 289.711 200.09C289.711 201.086 290.053 201.932 290.737 202.628ZM308.799 195.59V204.59H307.611V197.408L304.461 202.52H304.317L301.167 197.408V204.59H299.979V195.59H301.347L304.389 200.522L307.431 195.59H308.799ZM317.689 195.59H318.877V204.59H317.689V200.666H312.505V204.59H311.317V195.59H312.505V199.514H317.689V195.59ZM329.075 195.374C330.395 195.374 331.511 195.83 332.423 196.742C333.347 197.642 333.809 198.758 333.809 200.09C333.809 201.422 333.347 202.544 332.423 203.456C331.511 204.356 330.395 204.806 329.075 204.806C327.863 204.806 326.819 204.416 325.943 203.636C325.079 202.844 324.581 201.854 324.449 200.666H322.577V204.59H321.389V195.59H322.577V199.514H324.449C324.581 198.326 325.079 197.342 325.943 196.562C326.819 195.77 327.863 195.374 329.075 195.374ZM326.555 202.628C327.239 203.312 328.079 203.654 329.075 203.654C330.071 203.654 330.911 203.312 331.595 202.628C332.279 201.932 332.621 201.086 332.621 200.09C332.621 199.094 332.279 198.254 331.595 197.57C330.911 196.874 330.071 196.526 329.075 196.526C328.079 196.526 327.239 196.874 326.555 197.57C325.871 198.254 325.529 199.094 325.529 200.09C325.529 201.086 325.871 201.932 326.555 202.628Z" fill="white"/>
<path d="M400.797 188.59V187.456L405.333 182.884C406.629 181.588 407.277 180.478 407.277 179.554C407.277 178.75 407.025 178.126 406.521 177.682C406.029 177.226 405.435 176.998 404.739 176.998C403.443 176.998 402.501 177.592 401.913 178.78L400.851 178.15C401.247 177.37 401.787 176.782 402.471 176.386C403.155 175.978 403.911 175.774 404.739 175.774C405.747 175.774 406.629 176.116 407.385 176.8C408.153 177.472 408.537 178.39 408.537 179.554C408.537 180.286 408.333 180.988 407.925 181.66C407.517 182.332 406.941 183.04 406.197 183.784L402.597 187.366H408.807V188.59H400.797ZM418.538 187.042C417.71 188.218 416.54 188.806 415.028 188.806C413.516 188.806 412.34 188.218 411.5 187.042C410.672 185.854 410.258 184.27 410.258 182.29C410.258 180.31 410.672 178.732 411.5 177.556C412.34 176.368 413.516 175.774 415.028 175.774C416.54 175.774 417.71 176.368 418.538 177.556C419.378 178.732 419.798 180.31 419.798 182.29C419.798 184.27 419.378 185.854 418.538 187.042ZM412.436 186.196C413.06 187.12 413.924 187.582 415.028 187.582C416.132 187.582 416.99 187.12 417.602 186.196C418.226 185.272 418.538 183.97 418.538 182.29C418.538 180.61 418.226 179.308 417.602 178.384C416.99 177.46 416.132 176.998 415.028 176.998C413.924 176.998 413.06 177.46 412.436 178.384C411.824 179.308 411.518 180.61 411.518 182.29C411.518 183.97 411.824 185.272 412.436 186.196ZM421.241 188.59V187.456L425.777 182.884C427.073 181.588 427.721 180.478 427.721 179.554C427.721 178.75 427.469 178.126 426.965 177.682C426.473 177.226 425.879 176.998 425.183 176.998C423.887 176.998 422.945 177.592 422.357 178.78L421.295 178.15C421.691 177.37 422.231 176.782 422.915 176.386C423.599 175.978 424.355 175.774 425.183 175.774C426.191 175.774 427.073 176.116 427.829 176.8C428.597 177.472 428.981 178.39 428.981 179.554C428.981 180.286 428.777 180.988 428.369 181.66C427.961 182.332 427.385 183.04 426.641 183.784L423.041 187.366H429.251V188.59H421.241ZM433.578 175.99H434.658V188.59H433.398V177.376L430.572 178.222L430.248 177.142L433.578 175.99Z" fill="white"/>
</svg>
