<svg width="44" height="44" viewBox="0 0 44 44" fill="none" xmlns="http://www.w3.org/2000/svg">
<path d="M21.9998 0.261719C10.0046 0.261719 0.261719 10.0046 0.261719 21.9998C0.261719 33.9951 10.0046 43.7379 21.9998 43.7379C33.9951 43.7379 43.7379 33.9951 43.7379 21.9998C43.7379 10.0046 33.9951 0.261719 21.9998 0.261719ZM21.9998 42.6903C10.5808 42.6903 1.30934 33.4189 1.30934 21.9998C1.30934 10.5808 10.5808 1.30934 21.9998 1.30934C33.4189 1.30934 42.6903 10.5808 42.6903 21.9998C42.6903 33.4189 33.4189 42.6903 21.9998 42.6903Z" fill="#005893"/>
<path d="M22.0007 21.3192V5.23828H20.9531V22.2621L21.7388 22.6811L31.4293 16.3954L30.9055 15.5573L22.0007 21.3192Z" fill="#005893"/>
</svg>
