<svg width="51" height="43" viewBox="0 0 51 43" fill="none" xmlns="http://www.w3.org/2000/svg">
<path d="M38.281 42.3326C37.8975 42.3326 37.1283 42.0006 37.0904 41.2326C37.0646 40.7253 36.8883 40.3845 36.1065 40.3716C36.106 40.3716 36.1054 40.3716 36.1044 40.3716C35.6163 40.3716 35.3914 40.5005 35.1731 40.6245C34.9997 40.7238 34.8203 40.826 34.5722 40.8349C34.5712 40.8349 34.5707 40.8349 34.5702 40.8349C34.3387 40.8349 34.1755 40.7559 34.0436 40.6927C33.8222 40.5855 33.6762 40.5662 33.4109 40.8132C33.0925 41.1091 32.7569 41.2652 32.439 41.2652C31.9862 41.2652 31.6492 40.956 31.5365 40.4388C31.5147 40.3375 31.494 40.2313 31.4733 40.1237C31.4217 39.8564 31.3267 39.3615 31.2196 39.284C31.2181 39.2899 31.1711 39.3057 31.0842 39.3823C30.7259 39.6969 30.4267 39.8461 30.1861 39.9661C29.9936 40.0619 29.8551 40.1316 29.7505 40.2531C29.606 40.4205 29.4437 40.5055 29.2674 40.506C29.0213 40.506 28.8302 40.3459 28.6281 40.176C28.4163 39.9982 28.197 39.814 27.9176 39.814C27.8382 39.8179 27.8074 39.8194 27.7781 39.8194C27.1378 39.8194 26.9361 39.3195 26.8275 39.0513C26.8143 39.0187 26.7972 38.9772 26.7815 38.9412C26.7522 38.9925 26.7052 39.0711 26.6688 39.1299C26.4995 39.4084 26.268 39.7903 25.8218 39.8876C25.6854 39.9172 25.5363 39.8871 25.4059 39.8555C25.326 39.8362 25.2507 39.8174 25.181 39.8174C25.0956 39.8174 24.9763 39.8436 24.8126 40.0466C24.7676 40.1024 24.6307 40.2719 24.4235 40.2723C24.1945 40.2723 24.0657 40.0832 23.9419 39.9009C23.7301 39.5897 23.4815 39.2341 22.8093 39.3057C21.8133 39.4119 21.5596 38.8547 21.3701 38.4596C21.2174 38.141 21.131 37.9884 20.8475 37.9795C20.7424 37.976 20.6393 37.975 20.5377 37.975L19.8368 37.981C19.2602 37.981 18.5739 37.9518 17.7259 37.6051C16.5262 37.1156 15.4886 36.8968 14.3617 36.8968L14.0762 36.8997C13.359 36.8997 12.8865 36.7357 12.5065 36.6038C12.1553 36.4818 11.8975 36.4003 11.5994 36.4744C11.4725 36.5056 11.3396 36.5416 11.1996 36.5801C10.7499 36.7026 10.1904 36.8553 9.49555 36.9279C9.15392 36.9634 8.81785 36.921 8.53485 36.8849C8.37718 36.8647 8.23264 36.8454 8.10681 36.8454C7.89557 36.8454 7.87434 36.8968 7.8521 36.9965C7.72273 37.5878 7.12438 39.323 6.10961 39.5329C5.63609 39.6307 5.2884 39.4677 5.05138 39.3334C4.85631 39.2237 4.71026 39.1516 4.47476 39.2069C4.32315 39.2435 4.29182 39.3477 4.31507 39.7389C4.3277 39.9582 4.34033 40.1652 4.20187 40.3084C4.15183 40.3598 4.06289 40.4215 3.92189 40.4215C3.90774 40.4215 3.85013 40.4166 3.83649 40.4141C3.51457 40.3617 3.17648 40.0343 2.97484 39.5803C2.72772 39.0222 2.76107 38.4448 3.06732 37.9963C3.58532 37.2371 3.65658 36.471 3.65658 35.7562C3.65658 35.126 2.93088 34.7926 2.29008 34.4987C1.8115 34.2789 1.43298 34.105 1.35718 33.7904C1.27632 33.454 1.44663 32.923 1.92672 32.0156C2.57308 30.7941 3.50497 30.5837 4.32669 30.3975C4.54147 30.3491 4.74665 30.3026 4.94475 30.2409C4.98215 29.7756 5.0908 28.4489 5.14336 27.9861C5.19642 27.5198 5.01045 26.7482 4.65821 25.9733C4.34842 25.2926 3.25077 22.4307 3.23662 20.9765C3.23409 20.695 3.19872 20.534 3.131 20.3191C3.06985 20.1245 3.09765 19.9304 3.2063 19.7861C3.34224 19.6068 3.57067 19.5234 3.8845 19.5599C4.33579 19.6162 4.76181 19.6044 5.11657 19.5244C5.28587 19.4863 5.46325 19.4671 5.64266 19.4671C6.10051 19.4671 6.50986 19.5881 6.87119 19.6948C7.13954 19.7738 7.3715 19.8425 7.55798 19.8425C7.82734 19.8425 7.89708 19.7526 8.01331 19.6039C8.08962 19.5066 8.17604 19.3959 8.31957 19.3179C8.4924 19.2245 8.75418 19.266 8.99625 19.3258C9.12107 19.3569 9.24994 19.3885 9.35 19.3885C9.44501 19.3885 9.46927 19.3614 9.48948 19.3288C9.55669 19.2201 9.56983 19.0304 9.58247 18.8467C9.60723 18.4787 9.64564 17.9225 10.2814 17.8237C10.6205 17.7714 10.995 17.5432 11.3573 17.3229C11.6651 17.1357 11.9829 16.942 12.2978 16.8447C12.5166 16.7771 12.6889 16.7454 12.8411 16.7454C13.2554 16.7454 13.5152 16.9845 13.5723 17.4192C13.5971 17.6094 13.8988 17.8257 14.1388 17.8257C14.2313 17.8257 14.3309 17.801 14.3693 17.6177C14.4193 17.3777 14.4046 17.1944 14.3263 17.0878C14.2596 16.9964 14.1469 16.9653 14.0645 16.9554C13.8877 16.9341 13.5546 16.8941 13.3919 16.5992C13.2408 16.3261 13.2989 15.9329 13.5693 15.397C13.8624 14.8156 13.9281 14.1868 13.9857 13.6316C14.0372 13.1377 14.0817 12.7114 14.2712 12.3884C14.5244 11.9582 15.0535 11.6564 15.566 11.3645C15.8813 11.1847 16.179 11.0147 16.3912 10.83C16.5893 10.6576 16.703 10.4635 16.8137 10.2753C16.9987 9.96068 17.2084 9.60356 17.78 9.57886C17.876 9.57491 17.969 9.57343 18.0574 9.57343L18.4748 9.57738C18.8417 9.57738 18.8897 9.53095 18.9155 9.4697C19.1374 8.93674 19.4861 8.70656 19.6731 8.58308C19.6811 8.57814 19.6882 8.5727 19.6958 8.56826C19.6432 8.52924 19.4835 8.47293 19.1495 8.47293C19.0712 8.47293 18.9878 8.47589 18.8993 8.48231C18.7866 8.49022 18.6694 8.49614 18.5587 8.49614C18.2803 8.49614 17.9457 8.46404 17.8265 8.2146C17.7466 8.04765 17.7966 7.85649 17.9766 7.64558C18.11 7.48949 18.0968 7.36008 18.0776 7.16497C18.0554 6.93875 18.0276 6.6572 18.2762 6.36479C18.4021 6.21661 18.4253 6.06003 18.4531 5.87924C18.4961 5.59128 18.5557 5.19612 19.1566 5.02028C19.4436 4.93631 19.7266 4.68588 20.0005 4.44385C20.3507 4.13415 20.7136 3.81309 21.1361 3.81309C21.2154 3.81309 21.2943 3.82445 21.3711 3.84717C21.55 3.89953 21.7461 3.9751 21.9502 4.05315C22.4935 4.26208 23.0873 4.4641 23.3935 4.31148C23.5477 4.23442 23.5836 4.07488 23.6341 3.79975C23.6952 3.46585 23.7791 3.00846 24.3002 2.76495C24.5483 2.64838 24.7449 2.38363 24.9531 2.10356C25.2937 1.6442 25.6849 1.11716 26.4186 1.21496C26.8866 1.27967 27.0928 1.53059 27.2292 1.69655C27.3409 1.83239 27.3672 1.85264 27.4354 1.85264C27.4759 1.85264 27.5279 1.84325 27.5886 1.82498C28.5498 1.538 29.3048 1.85066 29.4574 2.56589C29.5347 2.59207 29.7197 2.50859 29.8844 2.43598C30.2528 2.27397 30.7622 2.0759 31.1958 2.17568C31.6881 2.29027 32.5917 2.61874 33.0637 3.0544C33.288 3.26185 33.1561 3.58687 33.003 3.96275C32.906 4.20182 32.7246 4.64736 32.8418 4.73824C33.1698 4.99262 33.657 4.66119 34.0906 4.32185C34.5307 3.97757 35.0593 3.62589 35.64 3.62589C35.7643 3.62589 35.8876 3.64268 36.0069 3.67528C36.4147 3.7879 36.6816 3.80716 36.9166 3.82445C37.3961 3.85952 37.6968 3.90447 38.3002 4.42163C38.7141 4.77677 39.1983 5.03016 39.6253 5.25392C40.1297 5.51817 40.5284 5.72711 40.6694 6.03484C40.825 6.37319 40.5905 6.90812 40.3429 7.47418C40.2161 7.76313 40.025 8.19978 40.0498 8.31931C40.0781 8.40822 40.2004 8.57764 40.3192 8.74163C40.635 9.17778 41.0676 9.77496 40.9398 10.4126C40.8589 10.8167 40.5471 11.2479 40.2454 11.6653C40.0549 11.929 39.736 12.3701 39.7658 12.4961C39.9518 12.6991 40.7133 13.0937 41.1682 13.3298C41.6341 13.5714 41.7493 13.6351 41.8135 13.7067C41.9818 13.8944 41.8444 14.1404 41.5947 14.5864C41.5174 14.7252 41.3981 14.9376 41.3466 15.0646C41.3572 15.0695 41.3683 15.0744 41.3784 15.0789C41.6584 15.2063 42.1794 15.4434 42.3603 16.2886C42.5549 17.1954 42.9663 17.5768 43.7592 18.0416C44.0028 18.1843 44.2312 18.2841 44.4318 18.3725C44.9119 18.5834 45.4087 18.8007 45.2146 19.4636C45.1843 19.5668 45.1454 19.6814 45.1045 19.8025C44.9948 20.124 44.8118 20.6629 44.9245 20.815C44.9564 20.8585 45.0514 20.8649 45.105 20.8649L45.16 20.8629C45.4021 20.8471 45.6725 20.8343 45.9494 20.8343C47.1143 20.8343 47.8486 21.064 48.1937 21.5367C48.4697 21.9145 48.3661 22.2396 48.2903 22.4762C48.2054 22.7424 48.1664 22.8634 48.5819 23.1242C49.2151 23.5208 49.5557 23.8982 49.6239 24.28C49.6679 24.527 49.5992 24.7675 49.4203 24.9952C49.2494 25.2121 49.017 25.3593 48.7229 25.5455C48.3989 25.75 47.9961 26.0049 47.516 26.4578C46.6049 27.3178 45.671 27.4585 44.6976 26.8772L44.4596 26.7319C44.0543 26.4825 43.6712 26.2469 43.3326 26.2469C43.1548 26.2469 42.9935 26.3091 42.8242 26.4425C42.2689 26.8786 42.376 27.26 42.7515 28.0266C42.8763 28.2819 43.0618 28.4365 43.2579 28.6005C43.5641 28.8574 43.9118 29.1473 43.8653 29.7865C43.8426 30.0996 43.9012 30.27 43.9638 30.4513C44.0573 30.7225 44.1539 31.0026 44.0002 31.6042C43.7956 32.4039 43.9123 33.007 44.4035 33.6861C44.683 34.0729 45.105 34.6567 44.7274 35.124C44.595 35.2875 44.3712 35.2875 44.2974 35.2875C44.1316 35.2875 43.927 35.2524 43.7102 35.2154C43.4666 35.1734 43.2139 35.1299 42.993 35.1299C42.6413 35.1299 42.5807 35.2435 42.5579 35.286C42.424 35.5364 42.2001 35.6634 41.8924 35.6634C41.7483 35.6634 41.5982 35.6367 41.4532 35.611C41.3137 35.5863 41.1687 35.5606 41.0388 35.5606C40.8104 35.5606 40.6664 35.6382 40.542 35.8293C40.355 36.1163 40.1655 36.3564 39.9831 36.5885C39.5879 37.0914 39.2463 37.525 39.0416 38.2763C38.7293 39.4198 38.6646 39.6579 38.9608 40.6275C39.1856 41.3654 39.0441 41.7843 38.8855 42.0061C38.7475 42.1992 38.5373 42.3217 38.323 42.3336C38.3159 42.3321 38.2861 42.3326 38.281 42.3326ZM36.0665 39.8772C37.054 39.8935 37.5518 40.341 37.5948 41.2084C37.619 41.688 38.137 41.8381 38.281 41.8381V42.0851L38.2911 41.8381C38.3013 41.8376 38.3912 41.8292 38.4695 41.7201C38.5469 41.6119 38.651 41.3437 38.4746 40.7658C38.138 39.6633 38.2335 39.3116 38.5514 38.1464C38.7824 37.2998 39.1705 36.8069 39.5808 36.2848C39.7572 36.061 39.9391 35.8293 40.1145 35.5611C40.3333 35.2262 40.635 35.0637 41.0378 35.0637C41.2137 35.0637 41.388 35.0949 41.5427 35.122C41.6715 35.1447 41.7928 35.1665 41.8913 35.1665C42.0248 35.1665 42.0697 35.1289 42.1092 35.0544C42.2588 34.7748 42.5559 34.6325 42.9925 34.6325C43.2568 34.6325 43.5444 34.6824 43.7976 34.7254C44.0755 34.7728 44.3656 34.7852 44.3691 34.7837C44.4495 34.6666 44.2888 34.3811 43.9906 33.9677C43.4115 33.168 43.268 32.4241 43.5095 31.4812C43.6273 31.0198 43.5641 30.8371 43.4843 30.6059C43.412 30.397 43.3306 30.1609 43.3604 29.7489C43.3892 29.3577 43.2159 29.213 42.9289 28.973C42.7121 28.7917 42.4665 28.5862 42.2951 28.237C41.9773 27.5884 41.5821 26.7823 42.5069 26.0548C42.7636 25.8532 43.0416 25.7505 43.3321 25.7505C43.8173 25.7505 44.26 26.0236 44.729 26.3121L44.9609 26.4534C45.7458 26.9226 46.4149 26.808 47.1643 26.1007C47.6798 25.6147 48.1053 25.345 48.4474 25.1286C48.7107 24.9622 48.9012 24.8416 49.019 24.692C49.1398 24.5379 49.1378 24.4307 49.1256 24.3625C49.0968 24.2015 48.9321 23.9278 48.3095 23.5376C47.6257 23.1099 47.6818 22.7211 47.8076 22.3275C47.8784 22.1062 47.9062 21.9921 47.7819 21.8222C47.6171 21.5959 47.1643 21.3263 45.9489 21.3263C45.6841 21.3263 45.4254 21.3386 45.1934 21.3539C44.7957 21.3796 44.6072 21.2285 44.5137 21.102C44.2504 20.7449 44.449 20.1606 44.6244 19.6449C44.6628 19.5318 44.6997 19.4236 44.7285 19.3258C44.7937 19.103 44.7694 19.0606 44.2246 18.8215C44.0215 18.7321 43.7683 18.6214 43.4989 18.4634C42.6171 17.9462 42.096 17.4627 41.8656 16.3883C41.7362 15.7857 41.4057 15.6351 41.1646 15.5254C41.0585 15.477 40.967 15.4355 40.8983 15.3609C40.7032 15.149 40.8816 14.8304 41.151 14.3484C41.2132 14.2372 41.2986 14.0851 41.3466 13.9823C41.2475 13.929 41.0828 13.8435 40.9317 13.765C40.2211 13.397 39.6142 13.071 39.3812 12.8122C39.0573 12.4526 39.4166 11.9552 39.833 11.3798C40.0912 11.0226 40.3839 10.6176 40.4445 10.3173C40.5304 9.88757 40.1847 9.41043 39.9073 9.02664C39.7527 8.81276 39.6192 8.62852 39.5667 8.46157C39.4848 8.20175 39.6319 7.84315 39.8785 7.27957C40.0165 6.96394 40.2737 6.37714 40.209 6.23636C40.1382 6.08225 39.7562 5.8827 39.3868 5.68908C38.9582 5.46433 38.4251 5.18526 37.9667 4.79307C37.4608 4.35939 37.2663 4.34506 36.8792 4.31691C36.633 4.29863 36.3263 4.27641 35.8699 4.15095C35.3858 4.01808 34.8213 4.38359 34.4064 4.70811C33.9951 5.02967 33.5534 5.32702 33.1091 5.32702C32.8964 5.32702 32.7008 5.25885 32.5285 5.125C32.1176 4.80641 32.3582 4.21318 32.5345 3.78049C32.5871 3.65207 32.6624 3.46585 32.6761 3.37694C32.2662 3.02772 31.4874 2.75112 31.0791 2.65579C30.7976 2.59157 30.411 2.74618 30.0931 2.88596C29.8506 2.99265 29.6408 3.08502 29.4478 3.08502C29.3295 3.08502 29.045 3.04402 28.9642 2.66715C28.8828 2.2878 28.5472 2.20828 28.2799 2.20828C28.1167 2.20828 27.9342 2.23841 27.7381 2.29669C27.2419 2.44487 26.9892 2.19 26.8366 2.00477C26.7158 1.85708 26.6193 1.74051 26.3494 1.70298C25.9178 1.64321 25.6657 1.98502 25.364 2.39252C25.1279 2.71061 24.8844 3.03909 24.52 3.20949C24.2466 3.33792 24.1945 3.55031 24.1329 3.88619C24.0783 4.18503 24.0101 4.55746 23.626 4.7501C23.1469 4.99065 22.3879 4.75059 21.7663 4.51202C21.5763 4.43941 21.3933 4.36828 21.2265 4.31889C20.9718 4.24381 20.6575 4.5293 20.3411 4.80888C20.0258 5.08746 19.6993 5.37592 19.3031 5.49199C19.0105 5.57794 18.9954 5.6792 18.9549 5.94988C18.9231 6.16128 18.8832 6.42357 18.6674 6.67893C18.5582 6.80736 18.5633 6.91158 18.5835 7.11657C18.6052 7.33983 18.6355 7.64607 18.3667 7.96071C18.3581 7.97059 18.351 7.97948 18.3445 7.98788C18.4374 8.0022 18.6623 8.0027 18.865 7.98837C19.529 7.94095 19.9515 8.04616 20.135 8.29412C20.23 8.42304 20.2517 8.58308 20.1971 8.74509C20.1582 8.85968 20.0652 8.92093 19.9581 8.99157C19.7959 9.09875 19.5497 9.26126 19.3855 9.65542C19.2122 10.0703 18.7518 10.0703 18.4769 10.0703L18.0594 10.0664C17.9786 10.0664 17.8932 10.0674 17.8047 10.0713C17.5212 10.0837 17.4363 10.2101 17.2539 10.5203C17.1356 10.7213 16.9886 10.9718 16.7298 11.1975C16.4797 11.4158 16.1456 11.606 15.8227 11.7902C15.3679 12.0496 14.8974 12.3178 14.7114 12.6339C14.575 12.8655 14.5355 13.2434 14.4901 13.681C14.4309 14.2476 14.3571 14.9534 14.0236 15.6148C13.7583 16.1414 13.8139 16.3212 13.8376 16.3641C13.8765 16.4348 14.017 16.4516 14.1105 16.4624C14.3865 16.496 14.6033 16.615 14.7387 16.7993C14.9034 17.024 14.9464 17.3323 14.866 17.716C14.7872 18.0939 14.5158 18.3191 14.1403 18.3191C13.688 18.3191 13.1357 17.961 13.0725 17.4819C13.0427 17.2567 12.9583 17.2389 12.8426 17.2389C12.745 17.2389 12.6177 17.2641 12.4519 17.315C12.1977 17.394 11.9198 17.5629 11.6257 17.7417C11.2209 17.9882 10.8024 18.2431 10.3622 18.3112C10.1621 18.3424 10.1187 18.4323 10.0878 18.8788C10.0722 19.1104 10.0545 19.3722 9.92258 19.5846C9.83818 19.72 9.67091 19.882 9.35101 19.882C9.18828 19.882 9.02151 19.8405 8.87395 19.8044C8.76631 19.7778 8.65462 19.7506 8.58539 19.7506C8.51464 19.7778 8.47117 19.8336 8.41609 19.9042C8.28166 20.0766 8.078 20.3369 7.55899 20.3369C7.29772 20.3369 7.02028 20.2549 6.72615 20.168C6.25364 20.0287 5.72351 19.8968 5.23079 20.0064C4.81689 20.0988 4.33225 20.1136 3.82234 20.0509C3.71267 20.0371 3.63081 20.0583 3.61362 20.0805C3.60453 20.0929 3.59947 20.125 3.61514 20.1744C3.69347 20.4233 3.73946 20.6338 3.743 20.9726C3.75563 22.2435 4.73351 24.9212 5.12062 25.7727C5.51278 26.6361 5.70936 27.4842 5.64619 28.0414C5.58403 28.5867 5.43798 30.4222 5.43647 30.4409C5.42889 30.5363 5.36521 30.6193 5.27273 30.6533C4.99781 30.7536 4.71481 30.8178 4.44141 30.8796C3.65658 31.0569 2.91572 31.2243 2.377 32.2433C1.88174 33.1794 1.81756 33.5404 1.85092 33.6787C1.88983 33.7696 2.26127 33.9395 2.50637 34.0526C3.20529 34.3732 4.16295 34.8128 4.16295 35.7572C4.16295 36.5115 4.0826 37.4001 3.4888 38.2714C3.19164 38.707 3.35538 39.1951 3.43927 39.3852C3.55096 39.6376 3.70257 39.8041 3.81678 39.8806C3.81577 39.8421 3.81324 39.8016 3.81122 39.768C3.79252 39.4544 3.75816 38.871 4.356 38.7283C4.76282 38.63 5.0716 38.7752 5.30507 38.9066C5.51328 39.0237 5.70229 39.1131 6.00601 39.0503C6.64934 38.917 7.21332 37.5581 7.35887 36.8943C7.43771 36.5347 7.68938 36.3524 8.10731 36.3524C8.25235 36.3524 8.41963 36.3732 8.60156 36.3964C8.87092 36.4315 9.15342 36.468 9.44248 36.4379C10.0954 36.3692 10.6104 36.2289 11.0642 36.105C11.2087 36.0659 11.3457 36.0284 11.4766 35.9963C11.8991 35.8911 12.2862 36.0037 12.6763 36.139C13.0376 36.2645 13.447 36.4063 14.0772 36.4063L14.3627 36.4033C15.5437 36.4033 16.6747 36.6404 17.9215 37.1501C18.6093 37.4307 19.1647 37.4875 19.8378 37.4875L20.5387 37.4816C20.6459 37.4816 20.754 37.4826 20.8647 37.486C21.4711 37.5048 21.6778 37.9355 21.8289 38.2502C22.0078 38.6231 22.1478 38.8794 22.7563 38.8152C23.7468 38.7125 24.1359 39.2929 24.3638 39.6283C24.3846 39.6584 24.4088 39.6939 24.431 39.7246C24.6539 39.4554 24.9 39.324 25.1825 39.324C25.3149 39.324 25.4342 39.3536 25.5302 39.3768C25.5944 39.3921 25.6555 39.4075 25.6955 39.4075C25.9461 39.3556 26.1003 39.1017 26.2357 38.8784C26.3772 38.6448 26.5116 38.4245 26.7618 38.3983C26.7633 38.3983 26.7648 38.3983 26.7668 38.3983C27.108 38.3983 27.2181 38.671 27.2985 38.87C27.4238 39.1797 27.5122 39.326 27.7791 39.326L27.8342 39.3235C28.3486 39.2909 28.7029 39.5868 28.9591 39.8026C29.0647 39.8915 29.2093 40.013 29.2684 40.013C29.2805 40.013 29.3164 39.9923 29.3644 39.936C29.5352 39.7384 29.7404 39.6362 29.9577 39.5275C30.1831 39.4149 30.4383 39.2879 30.7471 39.0163C30.9179 38.8666 31.0771 38.794 31.2348 38.794C31.733 38.794 31.8543 39.4243 31.9716 40.0343C31.9913 40.1375 32.011 40.2402 32.0322 40.3371C32.0752 40.5356 32.1813 40.7727 32.4405 40.7727C32.6235 40.7727 32.8448 40.6601 33.0637 40.4566C33.3163 40.2215 33.5458 40.1123 33.7853 40.1123C33.9809 40.1123 34.1335 40.1859 34.2685 40.2506C34.3705 40.3005 34.459 40.343 34.5464 40.343C34.6712 40.3385 34.7652 40.2886 34.9199 40.1997C35.1559 40.0629 35.4803 39.8772 36.0665 39.8772Z" fill="#005893" stroke="#1B5C94" stroke-width="0.5"/>
</svg>
