<svg width="563" height="563" viewBox="0 0 563 563" fill="none" xmlns="http://www.w3.org/2000/svg">
<path d="M281.5 50C313.125 50 344.415 56.4799 373.44 69.0398C402.464 81.5998 428.607 99.9734 450.256 123.027C471.905 146.081 488.601 173.326 499.314 203.082C510.027 232.838 514.529 264.473 512.543 296.036C510.557 327.599 502.126 358.42 487.768 386.599C473.41 414.777 453.431 439.715 429.064 459.874C404.696 480.033 376.456 494.985 346.086 503.808C315.717 512.631 283.861 515.138 252.485 511.175" stroke="#E7E7E9" stroke-width="100"/>
<g clip-path="url(#clip0)">
<path d="M292.094 16.7983C223.194 14.064 155.942 38.2933 104.617 84.3416L196.698 186.975C221.318 164.887 253.577 153.265 286.626 154.576L292.094 16.7983Z" fill="#292426"/>
<mask id="path-3-inside-1" fill="white">
<path d="M281.586 170.59C296.75 170.59 311.753 173.697 325.669 179.719C339.586 185.741 352.121 194.551 362.501 205.605C372.882 216.659 380.887 229.723 386.024 243.99C391.16 258.257 393.319 273.426 392.367 288.56C391.415 303.693 387.372 318.472 380.488 331.983C373.603 345.494 364.024 357.451 352.34 367.117C340.656 376.783 327.116 383.952 312.554 388.182C297.992 392.413 282.718 393.615 267.674 391.715L281.586 281.59V170.59Z"/>
</mask>
<path d="M281.586 170.59C296.75 170.59 311.753 173.697 325.669 179.719C339.586 185.741 352.121 194.551 362.501 205.605C372.882 216.659 380.887 229.723 386.024 243.99C391.16 258.257 393.319 273.426 392.367 288.56C391.415 303.693 387.372 318.472 380.488 331.983C373.603 345.494 364.024 357.451 352.34 367.117C340.656 376.783 327.116 383.952 312.554 388.182C297.992 392.413 282.718 393.615 267.674 391.715L281.586 281.59V170.59Z" stroke="#E7E7E9" stroke-width="200" mask="url(#path-3-inside-1)"/>
<path d="M281.586 16.5859C326.222 16.5859 370.136 27.8609 409.251 49.3647L342.811 170.218C324.052 159.905 302.993 154.498 281.586 154.498V16.5859Z" fill="#005893"/>
<path d="M408.594 49.0051C455.217 74.4642 493.113 113.348 517.364 160.611C541.614 207.873 551.101 261.334 544.593 314.055L407.72 297.158C410.841 271.874 406.291 246.236 394.661 223.57C383.031 200.904 364.857 182.256 342.498 170.046L408.594 49.0051Z" fill="#80ACC9"/>
<path d="M544.587 314.094C540.319 348.632 529.289 381.99 512.128 412.265C494.967 442.54 472.011 469.139 444.571 490.542C417.131 511.945 385.744 527.734 352.202 537.007C318.66 546.28 283.62 548.856 249.082 544.587L265.999 407.716C282.563 409.763 299.367 408.528 315.453 404.081C331.539 399.634 346.592 392.062 359.751 381.797C372.911 371.533 383.92 358.777 392.15 344.258C400.38 329.739 405.67 313.741 407.717 297.177L544.587 314.094Z" fill="#2FC7F7"/>
<path d="M249.052 544.584C201.952 538.758 157.281 520.39 119.707 491.399C82.1323 462.408 53.0326 423.858 35.4481 379.778L163.544 328.678C171.977 349.818 185.933 368.306 203.953 382.209C221.973 396.112 243.396 404.921 265.983 407.716L249.052 544.584Z" fill="#82DDFA"/>
<path d="M35.4858 379.871C14.7311 327.899 10.9623 270.691 24.7196 216.446L158.4 250.349C151.802 276.364 153.609 303.799 163.563 328.724L35.4858 379.871Z" fill="#CFCFD2"/>
<path d="M24.2725 216.372C38.135 162.154 68.8062 113.716 111.89 78.0005L199.906 184.175C179.244 201.303 164.534 224.533 157.886 250.535L24.2725 216.372Z" fill="#949293"/>
<path d="M317.386 278.015C319.743 278.015 321.726 278.727 323.336 280.15C324.946 281.55 325.751 283.51 325.751 286.03C325.751 288.55 324.899 290.522 323.196 291.945C321.516 293.368 319.451 294.08 317.001 294.08C315.018 294.08 313.268 293.637 311.751 292.75C310.234 291.863 309.138 290.557 308.461 288.83L312.591 286.415C313.198 288.375 314.668 289.355 317.001 289.355C318.238 289.355 319.194 289.063 319.871 288.48C320.571 287.873 320.921 287.057 320.921 286.03C320.921 285.027 320.583 284.222 319.906 283.615C319.229 283.008 318.308 282.705 317.141 282.705H309.721L310.701 269.09H324.596V273.605H315.181L314.866 278.015H317.386ZM327.261 293.59V289.985L335.626 281.375C337.493 279.415 338.426 277.782 338.426 276.475C338.426 275.518 338.123 274.748 337.516 274.165C336.933 273.582 336.175 273.29 335.241 273.29C333.398 273.29 332.033 274.247 331.146 276.16L327.086 273.78C327.856 272.1 328.965 270.817 330.411 269.93C331.858 269.043 333.445 268.6 335.171 268.6C337.388 268.6 339.29 269.3 340.876 270.7C342.463 272.077 343.256 273.943 343.256 276.3C343.256 278.843 341.915 281.457 339.231 284.14L334.436 288.935H343.641V293.59H327.261ZM356.258 278.505C355.138 279.602 353.738 280.15 352.058 280.15C350.378 280.15 348.967 279.59 347.823 278.47C346.703 277.35 346.143 275.985 346.143 274.375C346.143 272.765 346.703 271.4 347.823 270.28C348.967 269.16 350.378 268.6 352.058 268.6C353.738 268.6 355.138 269.16 356.258 270.28C357.378 271.377 357.938 272.742 357.938 274.375C357.938 276.008 357.378 277.385 356.258 278.505ZM348.628 289.88L364.588 272.135L366.723 273.325L350.728 291.105L348.628 289.88ZM350.448 275.985C350.868 276.405 351.393 276.615 352.023 276.615C352.653 276.615 353.178 276.405 353.598 275.985C354.018 275.542 354.228 275.005 354.228 274.375C354.228 273.745 354.018 273.22 353.598 272.8C353.178 272.38 352.653 272.17 352.023 272.17C351.393 272.17 350.868 272.38 350.448 272.8C350.052 273.22 349.853 273.745 349.853 274.375C349.853 275.005 350.052 275.542 350.448 275.985ZM368.088 292.33C366.968 293.45 365.568 294.01 363.888 294.01C362.208 294.01 360.808 293.45 359.688 292.33C358.568 291.21 358.008 289.845 358.008 288.235C358.008 286.625 358.568 285.26 359.688 284.14C360.808 283.02 362.208 282.46 363.888 282.46C365.568 282.46 366.968 283.02 368.088 284.14C369.208 285.26 369.768 286.625 369.768 288.235C369.768 289.845 369.208 291.21 368.088 292.33ZM362.313 289.845C362.733 290.265 363.258 290.475 363.888 290.475C364.518 290.475 365.032 290.253 365.428 289.81C365.848 289.367 366.058 288.842 366.058 288.235C366.058 287.605 365.848 287.08 365.428 286.66C365.032 286.217 364.518 285.995 363.888 285.995C363.258 285.995 362.733 286.217 362.313 286.66C361.917 287.08 361.718 287.605 361.718 288.235C361.718 288.865 361.917 289.402 362.313 289.845Z" fill="#292426"/>
</g>
<path d="M334.336 78.8538C335.888 79.7818 336.664 81.1338 336.664 82.9098C336.664 84.4618 336.12 85.6858 335.032 86.5818C333.96 87.4778 332.496 87.9258 330.64 87.9258C328.768 87.9258 327.296 87.4778 326.224 86.5818C325.152 85.6858 324.616 84.4618 324.616 82.9098C324.616 81.1338 325.384 79.7818 326.92 78.8538C325.752 78.0058 325.168 76.8458 325.168 75.3738C325.168 73.8218 325.688 72.6138 326.728 71.7498C327.784 70.8858 329.088 70.4538 330.64 70.4538C332.192 70.4538 333.488 70.8858 334.528 71.7498C335.568 72.6138 336.088 73.8218 336.088 75.3738C336.088 76.8618 335.504 78.0218 334.336 78.8538ZM332.2 74.1018C331.8 73.7498 331.28 73.5738 330.64 73.5738C330 73.5738 329.48 73.7498 329.08 74.1018C328.68 74.4538 328.48 74.9338 328.48 75.5418C328.48 76.1498 328.68 76.6378 329.08 77.0058C329.48 77.3578 330 77.5338 330.64 77.5338C331.28 77.5338 331.8 77.3578 332.2 77.0058C332.6 76.6378 332.8 76.1498 332.8 75.5418C332.8 74.9338 332.6 74.4538 332.2 74.1018ZM328.648 84.2058C329.16 84.6058 329.824 84.8058 330.64 84.8058C331.456 84.8058 332.112 84.6058 332.608 84.2058C333.12 83.7898 333.376 83.2138 333.376 82.4778C333.376 81.7578 333.12 81.1978 332.608 80.7978C332.112 80.3818 331.456 80.1738 330.64 80.1738C329.824 80.1738 329.16 80.3818 328.648 80.7978C328.152 81.1978 327.904 81.7578 327.904 82.4778C327.904 83.2138 328.152 83.7898 328.648 84.2058ZM345.012 77.2458C344.244 77.9978 343.284 78.3738 342.132 78.3738C340.98 78.3738 340.012 77.9898 339.228 77.2218C338.46 76.4538 338.076 75.5178 338.076 74.4138C338.076 73.3098 338.46 72.3738 339.228 71.6058C340.012 70.8378 340.98 70.4538 342.132 70.4538C343.284 70.4538 344.244 70.8378 345.012 71.6058C345.78 72.3578 346.164 73.2938 346.164 74.4138C346.164 75.5338 345.78 76.4778 345.012 77.2458ZM339.78 85.0458L350.724 72.8778L352.188 73.6938L341.22 85.8858L339.78 85.0458ZM341.028 75.5178C341.316 75.8058 341.676 75.9498 342.108 75.9498C342.54 75.9498 342.9 75.8058 343.188 75.5178C343.476 75.2138 343.62 74.8458 343.62 74.4138C343.62 73.9818 343.476 73.6218 343.188 73.3338C342.9 73.0458 342.54 72.9018 342.108 72.9018C341.676 72.9018 341.316 73.0458 341.028 73.3338C340.756 73.6218 340.62 73.9818 340.62 74.4138C340.62 74.8458 340.756 75.2138 341.028 75.5178ZM353.124 86.7258C352.356 87.4938 351.396 87.8778 350.244 87.8778C349.092 87.8778 348.132 87.4938 347.364 86.7258C346.596 85.9578 346.212 85.0218 346.212 83.9178C346.212 82.8138 346.596 81.8778 347.364 81.1098C348.132 80.3418 349.092 79.9578 350.244 79.9578C351.396 79.9578 352.356 80.3418 353.124 81.1098C353.892 81.8778 354.276 82.8138 354.276 83.9178C354.276 85.0218 353.892 85.9578 353.124 86.7258ZM349.164 85.0218C349.452 85.3098 349.812 85.4538 350.244 85.4538C350.676 85.4538 351.028 85.3018 351.3 84.9978C351.588 84.6938 351.732 84.3338 351.732 83.9178C351.732 83.4858 351.588 83.1258 351.3 82.8378C351.028 82.5338 350.676 82.3818 350.244 82.3818C349.812 82.3818 349.452 82.5338 349.164 82.8378C348.892 83.1258 348.756 83.4858 348.756 83.9178C348.756 84.3498 348.892 84.7178 349.164 85.0218Z" fill="white"/>
<path d="M441.317 168.79H444.197V185.59H440.885V172.294L437.717 173.182L436.901 170.35L441.317 168.79ZM458.638 174.286C458.638 175.582 458.302 176.718 457.63 177.694H457.654L452.422 185.59H448.63L452.374 180.118C450.63 180.086 449.206 179.534 448.102 178.462C447.014 177.374 446.47 175.982 446.47 174.286C446.47 172.574 447.03 171.174 448.15 170.086C449.286 168.998 450.75 168.454 452.542 168.454C454.35 168.454 455.814 168.998 456.934 170.086C458.07 171.158 458.638 172.558 458.638 174.286ZM449.758 174.286C449.758 175.118 450.022 175.782 450.55 176.278C451.094 176.774 451.758 177.022 452.542 177.022C453.358 177.022 454.03 176.774 454.558 176.278C455.086 175.782 455.35 175.118 455.35 174.286C455.35 173.454 455.086 172.798 454.558 172.318C454.03 171.822 453.358 171.574 452.542 171.574C451.758 171.574 451.094 171.822 450.55 172.318C450.022 172.814 449.758 173.47 449.758 174.286ZM467.2 175.246C466.432 175.998 465.472 176.374 464.32 176.374C463.168 176.374 462.2 175.99 461.416 175.222C460.648 174.454 460.264 173.518 460.264 172.414C460.264 171.31 460.648 170.374 461.416 169.606C462.2 168.838 463.168 168.454 464.32 168.454C465.472 168.454 466.432 168.838 467.2 169.606C467.968 170.358 468.352 171.294 468.352 172.414C468.352 173.534 467.968 174.478 467.2 175.246ZM461.968 183.046L472.912 170.878L474.376 171.694L463.408 183.886L461.968 183.046ZM463.216 173.518C463.504 173.806 463.864 173.95 464.296 173.95C464.728 173.95 465.088 173.806 465.376 173.518C465.664 173.214 465.808 172.846 465.808 172.414C465.808 171.982 465.664 171.622 465.376 171.334C465.088 171.046 464.728 170.902 464.296 170.902C463.864 170.902 463.504 171.046 463.216 171.334C462.944 171.622 462.808 171.982 462.808 172.414C462.808 172.846 462.944 173.214 463.216 173.518ZM475.312 184.726C474.544 185.494 473.584 185.878 472.432 185.878C471.28 185.878 470.32 185.494 469.552 184.726C468.784 183.958 468.4 183.022 468.4 181.918C468.4 180.814 468.784 179.878 469.552 179.11C470.32 178.342 471.28 177.958 472.432 177.958C473.584 177.958 474.544 178.342 475.312 179.11C476.08 179.878 476.464 180.814 476.464 181.918C476.464 183.022 476.08 183.958 475.312 184.726ZM471.352 183.022C471.64 183.31 472 183.454 472.432 183.454C472.864 183.454 473.216 183.302 473.488 182.998C473.776 182.694 473.92 182.334 473.92 181.918C473.92 181.486 473.776 181.126 473.488 180.838C473.216 180.534 472.864 180.382 472.432 180.382C472 180.382 471.64 180.534 471.352 180.838C471.08 181.126 470.944 181.486 470.944 181.918C470.944 182.35 471.08 182.718 471.352 183.022Z" fill="white"/>
<path d="M379.496 436.59V434.118L385.232 428.214C386.512 426.87 387.152 425.75 387.152 424.854C387.152 424.198 386.944 423.67 386.528 423.27C386.128 422.87 385.608 422.67 384.968 422.67C383.704 422.67 382.768 423.326 382.16 424.638L379.376 423.006C379.904 421.854 380.664 420.974 381.656 420.366C382.648 419.758 383.736 419.454 384.92 419.454C386.44 419.454 387.744 419.934 388.832 420.894C389.92 421.838 390.464 423.118 390.464 424.734C390.464 426.478 389.544 428.27 387.704 430.11L384.416 433.398H390.728V436.59H379.496ZM398.013 425.91C399.629 425.91 400.989 426.398 402.093 427.374C403.197 428.334 403.749 429.678 403.749 431.406C403.749 433.134 403.165 434.486 401.997 435.462C400.845 436.438 399.429 436.926 397.749 436.926C396.389 436.926 395.189 436.622 394.149 436.014C393.109 435.406 392.357 434.51 391.893 433.326L394.725 431.67C395.141 433.014 396.149 433.686 397.749 433.686C398.597 433.686 399.253 433.486 399.717 433.086C400.197 432.67 400.437 432.11 400.437 431.406C400.437 430.718 400.205 430.166 399.741 429.75C399.277 429.334 398.645 429.126 397.845 429.126H392.757L393.429 419.79H402.957V422.886H396.501L396.285 425.91H398.013ZM411.989 426.246C411.221 426.998 410.261 427.374 409.109 427.374C407.957 427.374 406.989 426.99 406.205 426.222C405.437 425.454 405.053 424.518 405.053 423.414C405.053 422.31 405.437 421.374 406.205 420.606C406.989 419.838 407.957 419.454 409.109 419.454C410.261 419.454 411.221 419.838 411.989 420.606C412.757 421.358 413.141 422.294 413.141 423.414C413.141 424.534 412.757 425.478 411.989 426.246ZM406.757 434.046L417.701 421.878L419.165 422.694L408.197 434.886L406.757 434.046ZM408.005 424.518C408.293 424.806 408.653 424.95 409.085 424.95C409.517 424.95 409.877 424.806 410.165 424.518C410.453 424.214 410.597 423.846 410.597 423.414C410.597 422.982 410.453 422.622 410.165 422.334C409.877 422.046 409.517 421.902 409.085 421.902C408.653 421.902 408.293 422.046 408.005 422.334C407.733 422.622 407.597 422.982 407.597 423.414C407.597 423.846 407.733 424.214 408.005 424.518ZM420.101 435.726C419.333 436.494 418.373 436.878 417.221 436.878C416.069 436.878 415.109 436.494 414.341 435.726C413.573 434.958 413.189 434.022 413.189 432.918C413.189 431.814 413.573 430.878 414.341 430.11C415.109 429.342 416.069 428.958 417.221 428.958C418.373 428.958 419.333 429.342 420.101 430.11C420.869 430.878 421.253 431.814 421.253 432.918C421.253 434.022 420.869 434.958 420.101 435.726ZM416.141 434.022C416.429 434.31 416.789 434.454 417.221 434.454C417.653 434.454 418.005 434.302 418.277 433.998C418.565 433.694 418.709 433.334 418.709 432.918C418.709 432.486 418.565 432.126 418.277 431.838C418.005 431.534 417.653 431.382 417.221 431.382C416.789 431.382 416.429 431.534 416.141 431.838C415.869 432.126 415.733 432.486 415.733 432.918C415.733 433.35 415.869 433.718 416.141 434.022Z" fill="white"/>
<path d="M155.567 419.79H158.447V436.59H155.135V423.294L151.967 424.182L151.151 421.35L155.567 419.79ZM160.48 419.79H171.328V422.598L165.64 436.59H162.136L167.656 422.958H160.48V419.79ZM179.95 426.246C179.182 426.998 178.222 427.374 177.07 427.374C175.918 427.374 174.95 426.99 174.166 426.222C173.398 425.454 173.014 424.518 173.014 423.414C173.014 422.31 173.398 421.374 174.166 420.606C174.95 419.838 175.918 419.454 177.07 419.454C178.222 419.454 179.182 419.838 179.95 420.606C180.718 421.358 181.102 422.294 181.102 423.414C181.102 424.534 180.718 425.478 179.95 426.246ZM174.718 434.046L185.662 421.878L187.126 422.694L176.158 434.886L174.718 434.046ZM175.966 424.518C176.254 424.806 176.614 424.95 177.046 424.95C177.478 424.95 177.838 424.806 178.126 424.518C178.414 424.214 178.558 423.846 178.558 423.414C178.558 422.982 178.414 422.622 178.126 422.334C177.838 422.046 177.478 421.902 177.046 421.902C176.614 421.902 176.254 422.046 175.966 422.334C175.694 422.622 175.558 422.982 175.558 423.414C175.558 423.846 175.694 424.214 175.966 424.518ZM188.062 435.726C187.294 436.494 186.334 436.878 185.182 436.878C184.03 436.878 183.07 436.494 182.302 435.726C181.534 434.958 181.15 434.022 181.15 432.918C181.15 431.814 181.534 430.878 182.302 430.11C183.07 429.342 184.03 428.958 185.182 428.958C186.334 428.958 187.294 429.342 188.062 430.11C188.83 430.878 189.214 431.814 189.214 432.918C189.214 434.022 188.83 434.958 188.062 435.726ZM184.102 434.022C184.39 434.31 184.75 434.454 185.182 434.454C185.614 434.454 185.966 434.302 186.238 433.998C186.526 433.694 186.67 433.334 186.67 432.918C186.67 432.486 186.526 432.126 186.238 431.838C185.966 431.534 185.614 431.382 185.182 431.382C184.75 431.382 184.39 431.534 184.102 431.838C183.83 432.126 183.694 432.486 183.694 432.918C183.694 433.35 183.83 433.718 184.102 434.022Z" fill="white"/>
<path d="M67.6253 284.79H70.5053V301.59H67.1933V288.294L64.0253 289.182L63.2093 286.35L67.6253 284.79ZM79.7866 301.926C77.6906 301.926 76.0426 301.134 74.8426 299.55C73.6586 297.95 73.0666 295.83 73.0666 293.19C73.0666 290.55 73.6586 288.438 74.8426 286.854C76.0426 285.254 77.6906 284.454 79.7866 284.454C81.8986 284.454 83.5466 285.254 84.7306 286.854C85.9146 288.438 86.5066 290.55 86.5066 293.19C86.5066 295.83 85.9146 297.95 84.7306 299.55C83.5466 301.134 81.8986 301.926 79.7866 301.926ZM77.2426 297.294C77.8186 298.222 78.6666 298.686 79.7866 298.686C80.9066 298.686 81.7546 298.214 82.3306 297.27C82.9226 296.326 83.2186 294.966 83.2186 293.19C83.2186 291.398 82.9226 290.03 82.3306 289.086C81.7546 288.142 80.9066 287.67 79.7866 287.67C78.6666 287.67 77.8186 288.142 77.2426 289.086C76.6666 290.03 76.3786 291.398 76.3786 293.19C76.3786 294.982 76.6666 296.35 77.2426 297.294ZM94.891 291.246C94.123 291.998 93.163 292.374 92.011 292.374C90.859 292.374 89.891 291.99 89.107 291.222C88.339 290.454 87.955 289.518 87.955 288.414C87.955 287.31 88.339 286.374 89.107 285.606C89.891 284.838 90.859 284.454 92.011 284.454C93.163 284.454 94.123 284.838 94.891 285.606C95.659 286.358 96.043 287.294 96.043 288.414C96.043 289.534 95.659 290.478 94.891 291.246ZM89.659 299.046L100.603 286.878L102.067 287.694L91.099 299.886L89.659 299.046ZM90.907 289.518C91.195 289.806 91.555 289.95 91.987 289.95C92.419 289.95 92.779 289.806 93.067 289.518C93.355 289.214 93.499 288.846 93.499 288.414C93.499 287.982 93.355 287.622 93.067 287.334C92.779 287.046 92.419 286.902 91.987 286.902C91.555 286.902 91.195 287.046 90.907 287.334C90.635 287.622 90.499 287.982 90.499 288.414C90.499 288.846 90.635 289.214 90.907 289.518ZM103.003 300.726C102.235 301.494 101.275 301.878 100.123 301.878C98.971 301.878 98.011 301.494 97.243 300.726C96.475 299.958 96.091 299.022 96.091 297.918C96.091 296.814 96.475 295.878 97.243 295.11C98.011 294.342 98.971 293.958 100.123 293.958C101.275 293.958 102.235 294.342 103.003 295.11C103.771 295.878 104.155 296.814 104.155 297.918C104.155 299.022 103.771 299.958 103.003 300.726ZM99.043 299.022C99.331 299.31 99.691 299.454 100.123 299.454C100.555 299.454 100.907 299.302 101.179 298.998C101.467 298.694 101.611 298.334 101.611 297.918C101.611 297.486 101.467 297.126 101.179 296.838C100.907 296.534 100.555 296.382 100.123 296.382C99.691 296.382 99.331 296.534 99.043 296.838C98.771 297.126 98.635 297.486 98.635 297.918C98.635 298.35 98.771 298.718 99.043 299.022Z" fill="white"/>
<path d="M93.6253 159.79H96.5053V176.59H93.1933V163.294L90.0253 164.182L89.2093 161.35L93.6253 159.79ZM105.787 176.926C103.691 176.926 102.043 176.134 100.843 174.55C99.6586 172.95 99.0666 170.83 99.0666 168.19C99.0666 165.55 99.6586 163.438 100.843 161.854C102.043 160.254 103.691 159.454 105.787 159.454C107.899 159.454 109.547 160.254 110.731 161.854C111.915 163.438 112.507 165.55 112.507 168.19C112.507 170.83 111.915 172.95 110.731 174.55C109.547 176.134 107.899 176.926 105.787 176.926ZM103.243 172.294C103.819 173.222 104.667 173.686 105.787 173.686C106.907 173.686 107.755 173.214 108.331 172.27C108.923 171.326 109.219 169.966 109.219 168.19C109.219 166.398 108.923 165.03 108.331 164.086C107.755 163.142 106.907 162.67 105.787 162.67C104.667 162.67 103.819 163.142 103.243 164.086C102.667 165.03 102.379 166.398 102.379 168.19C102.379 169.982 102.667 171.35 103.243 172.294ZM120.891 166.246C120.123 166.998 119.163 167.374 118.011 167.374C116.859 167.374 115.891 166.99 115.107 166.222C114.339 165.454 113.955 164.518 113.955 163.414C113.955 162.31 114.339 161.374 115.107 160.606C115.891 159.838 116.859 159.454 118.011 159.454C119.163 159.454 120.123 159.838 120.891 160.606C121.659 161.358 122.043 162.294 122.043 163.414C122.043 164.534 121.659 165.478 120.891 166.246ZM115.659 174.046L126.603 161.878L128.067 162.694L117.099 174.886L115.659 174.046ZM116.907 164.518C117.195 164.806 117.555 164.95 117.987 164.95C118.419 164.95 118.779 164.806 119.067 164.518C119.355 164.214 119.499 163.846 119.499 163.414C119.499 162.982 119.355 162.622 119.067 162.334C118.779 162.046 118.419 161.902 117.987 161.902C117.555 161.902 117.195 162.046 116.907 162.334C116.635 162.622 116.499 162.982 116.499 163.414C116.499 163.846 116.635 164.214 116.907 164.518ZM129.003 175.726C128.235 176.494 127.275 176.878 126.123 176.878C124.971 176.878 124.011 176.494 123.243 175.726C122.475 174.958 122.091 174.022 122.091 172.918C122.091 171.814 122.475 170.878 123.243 170.11C124.011 169.342 124.971 168.958 126.123 168.958C127.275 168.958 128.235 169.342 129.003 170.11C129.771 170.878 130.155 171.814 130.155 172.918C130.155 174.022 129.771 174.958 129.003 175.726ZM125.043 174.022C125.331 174.31 125.691 174.454 126.123 174.454C126.555 174.454 126.907 174.302 127.179 173.998C127.467 173.694 127.611 173.334 127.611 172.918C127.611 172.486 127.467 172.126 127.179 171.838C126.907 171.534 126.555 171.382 126.123 171.382C125.691 171.382 125.331 171.534 125.043 171.838C124.771 172.126 124.635 172.486 124.635 172.918C124.635 173.35 124.771 173.718 125.043 174.022Z" fill="white"/>
<path d="M202.309 82.7898H205.189V99.5898H201.877V86.2938L198.709 87.1818L197.893 84.3498L202.309 82.7898ZM211.59 82.7898H214.47V99.5898H211.158V86.2938L207.99 87.1818L207.174 84.3498L211.59 82.7898ZM224.207 89.2458C223.439 89.9978 222.479 90.3738 221.327 90.3738C220.175 90.3738 219.207 89.9898 218.423 89.2218C217.655 88.4538 217.271 87.5178 217.271 86.4138C217.271 85.3098 217.655 84.3738 218.423 83.6058C219.207 82.8378 220.175 82.4538 221.327 82.4538C222.479 82.4538 223.439 82.8378 224.207 83.6058C224.975 84.3578 225.359 85.2938 225.359 86.4138C225.359 87.5338 224.975 88.4778 224.207 89.2458ZM218.975 97.0458L229.919 84.8778L231.383 85.6938L220.415 97.8858L218.975 97.0458ZM220.223 87.5178C220.511 87.8058 220.871 87.9498 221.303 87.9498C221.735 87.9498 222.095 87.8058 222.383 87.5178C222.671 87.2138 222.815 86.8458 222.815 86.4138C222.815 85.9818 222.671 85.6218 222.383 85.3338C222.095 85.0458 221.735 84.9018 221.303 84.9018C220.871 84.9018 220.511 85.0458 220.223 85.3338C219.951 85.6218 219.815 85.9818 219.815 86.4138C219.815 86.8458 219.951 87.2138 220.223 87.5178ZM232.319 98.7258C231.551 99.4938 230.591 99.8778 229.439 99.8778C228.287 99.8778 227.327 99.4938 226.559 98.7258C225.791 97.9578 225.407 97.0218 225.407 95.9178C225.407 94.8138 225.791 93.8778 226.559 93.1098C227.327 92.3418 228.287 91.9578 229.439 91.9578C230.591 91.9578 231.551 92.3418 232.319 93.1098C233.087 93.8778 233.471 94.8138 233.471 95.9178C233.471 97.0218 233.087 97.9578 232.319 98.7258ZM228.359 97.0218C228.647 97.3098 229.007 97.4538 229.439 97.4538C229.871 97.4538 230.223 97.3018 230.495 96.9978C230.783 96.6938 230.927 96.3338 230.927 95.9178C230.927 95.4858 230.783 95.1258 230.495 94.8378C230.223 94.5338 229.871 94.3818 229.439 94.3818C229.007 94.3818 228.647 94.5338 228.359 94.8378C228.087 95.1258 227.951 95.4858 227.951 95.9178C227.951 96.3498 228.087 96.7178 228.359 97.0218Z" fill="white"/>
<path d="M437.775 212.59V211.456L442.311 206.884C443.607 205.588 444.255 204.478 444.255 203.554C444.255 202.75 444.003 202.126 443.499 201.682C443.007 201.226 442.413 200.998 441.717 200.998C440.421 200.998 439.479 201.592 438.891 202.78L437.829 202.15C438.225 201.37 438.765 200.782 439.449 200.386C440.133 199.978 440.889 199.774 441.717 199.774C442.725 199.774 443.607 200.116 444.363 200.8C445.131 201.472 445.515 202.39 445.515 203.554C445.515 204.286 445.311 204.988 444.903 205.66C444.495 206.332 443.919 207.04 443.175 207.784L439.575 211.366H445.785V212.59H437.775ZM455.516 211.042C454.688 212.218 453.518 212.806 452.006 212.806C450.494 212.806 449.318 212.218 448.478 211.042C447.65 209.854 447.236 208.27 447.236 206.29C447.236 204.31 447.65 202.732 448.478 201.556C449.318 200.368 450.494 199.774 452.006 199.774C453.518 199.774 454.688 200.368 455.516 201.556C456.356 202.732 456.776 204.31 456.776 206.29C456.776 208.27 456.356 209.854 455.516 211.042ZM449.414 210.196C450.038 211.12 450.902 211.582 452.006 211.582C453.11 211.582 453.968 211.12 454.58 210.196C455.204 209.272 455.516 207.97 455.516 206.29C455.516 204.61 455.204 203.308 454.58 202.384C453.968 201.46 453.11 200.998 452.006 200.998C450.902 200.998 450.038 201.46 449.414 202.384C448.802 203.308 448.496 204.61 448.496 206.29C448.496 207.97 448.802 209.272 449.414 210.196ZM458.218 212.59V211.456L462.754 206.884C464.05 205.588 464.698 204.478 464.698 203.554C464.698 202.75 464.446 202.126 463.942 201.682C463.45 201.226 462.856 200.998 462.16 200.998C460.864 200.998 459.922 201.592 459.334 202.78L458.272 202.15C458.668 201.37 459.208 200.782 459.892 200.386C460.576 199.978 461.332 199.774 462.16 199.774C463.168 199.774 464.05 200.116 464.806 200.8C465.574 201.472 465.958 202.39 465.958 203.554C465.958 204.286 465.754 204.988 465.346 205.66C464.938 206.332 464.362 207.04 463.618 207.784L460.018 211.366H466.228V212.59H458.218ZM475.959 211.042C475.131 212.218 473.961 212.806 472.449 212.806C470.937 212.806 469.761 212.218 468.921 211.042C468.093 209.854 467.679 208.27 467.679 206.29C467.679 204.31 468.093 202.732 468.921 201.556C469.761 200.368 470.937 199.774 472.449 199.774C473.961 199.774 475.131 200.368 475.959 201.556C476.799 202.732 477.219 204.31 477.219 206.29C477.219 208.27 476.799 209.854 475.959 211.042ZM469.857 210.196C470.481 211.12 471.345 211.582 472.449 211.582C473.553 211.582 474.411 211.12 475.023 210.196C475.647 209.272 475.959 207.97 475.959 206.29C475.959 204.61 475.647 203.308 475.023 202.384C474.411 201.46 473.553 200.998 472.449 200.998C471.345 200.998 470.481 201.46 469.857 202.384C469.245 203.308 468.939 204.61 468.939 206.29C468.939 207.97 469.245 209.272 469.857 210.196Z" fill="white"/>
<path d="M359.542 463.59V462.456L364.078 457.884C365.374 456.588 366.022 455.478 366.022 454.554C366.022 453.75 365.77 453.126 365.266 452.682C364.774 452.226 364.18 451.998 363.484 451.998C362.188 451.998 361.246 452.592 360.658 453.78L359.596 453.15C359.992 452.37 360.532 451.782 361.216 451.386C361.9 450.978 362.656 450.774 363.484 450.774C364.492 450.774 365.374 451.116 366.13 451.8C366.898 452.472 367.282 453.39 367.282 454.554C367.282 455.286 367.078 455.988 366.67 456.66C366.262 457.332 365.686 458.04 364.942 458.784L361.342 462.366H367.552V463.59H359.542ZM377.284 462.042C376.456 463.218 375.286 463.806 373.774 463.806C372.262 463.806 371.086 463.218 370.246 462.042C369.418 460.854 369.004 459.27 369.004 457.29C369.004 455.31 369.418 453.732 370.246 452.556C371.086 451.368 372.262 450.774 373.774 450.774C375.286 450.774 376.456 451.368 377.284 452.556C378.124 453.732 378.544 455.31 378.544 457.29C378.544 459.27 378.124 460.854 377.284 462.042ZM371.182 461.196C371.806 462.12 372.67 462.582 373.774 462.582C374.878 462.582 375.736 462.12 376.348 461.196C376.972 460.272 377.284 458.97 377.284 457.29C377.284 455.61 376.972 454.308 376.348 453.384C375.736 452.46 374.878 451.998 373.774 451.998C372.67 451.998 371.806 452.46 371.182 453.384C370.57 454.308 370.264 455.61 370.264 457.29C370.264 458.97 370.57 460.272 371.182 461.196ZM382.69 450.99H383.77V463.59H382.51V452.376L379.684 453.222L379.36 452.142L382.69 450.99ZM392.263 457.092C392.899 457.392 393.403 457.812 393.775 458.352C394.159 458.88 394.351 459.486 394.351 460.17C394.351 461.31 393.949 462.204 393.145 462.852C392.341 463.488 391.339 463.806 390.139 463.806C388.939 463.806 387.937 463.488 387.133 462.852C386.329 462.204 385.927 461.31 385.927 460.17C385.927 459.486 386.113 458.88 386.485 458.352C386.869 457.812 387.379 457.392 388.015 457.092C386.899 456.456 386.341 455.514 386.341 454.266C386.341 453.138 386.713 452.274 387.457 451.674C388.213 451.074 389.107 450.774 390.139 450.774C391.171 450.774 392.059 451.074 392.803 451.674C393.559 452.274 393.937 453.138 393.937 454.266C393.937 455.514 393.379 456.456 392.263 457.092ZM391.939 452.556C391.459 452.184 390.859 451.998 390.139 451.998C389.419 451.998 388.813 452.184 388.321 452.556C387.841 452.928 387.601 453.498 387.601 454.266C387.601 454.986 387.847 455.544 388.339 455.94C388.843 456.336 389.443 456.534 390.139 456.534C390.835 456.534 391.429 456.336 391.921 455.94C392.425 455.544 392.677 454.986 392.677 454.266C392.677 453.498 392.431 452.928 391.939 452.556ZM387.997 461.97C388.537 462.378 389.251 462.582 390.139 462.582C391.027 462.582 391.741 462.378 392.281 461.97C392.821 461.55 393.091 460.95 393.091 460.17C393.091 459.39 392.821 458.796 392.281 458.388C391.741 457.968 391.027 457.758 390.139 457.758C389.251 457.758 388.537 457.968 387.997 458.388C387.457 458.796 387.187 459.39 387.187 460.17C387.187 460.95 387.457 461.55 387.997 461.97ZM396.508 458.604V457.452H402.988V458.604H396.508ZM405.14 463.59V462.456L409.676 457.884C410.972 456.588 411.62 455.478 411.62 454.554C411.62 453.75 411.368 453.126 410.864 452.682C410.372 452.226 409.778 451.998 409.082 451.998C407.786 451.998 406.844 452.592 406.256 453.78L405.194 453.15C405.59 452.37 406.13 451.782 406.814 451.386C407.498 450.978 408.254 450.774 409.082 450.774C410.09 450.774 410.972 451.116 411.728 451.8C412.496 452.472 412.88 453.39 412.88 454.554C412.88 455.286 412.676 455.988 412.268 456.66C411.86 457.332 411.284 458.04 410.54 458.784L406.94 462.366H413.15V463.59H405.14ZM422.881 462.042C422.053 463.218 420.883 463.806 419.371 463.806C417.859 463.806 416.683 463.218 415.843 462.042C415.015 460.854 414.601 459.27 414.601 457.29C414.601 455.31 415.015 453.732 415.843 452.556C416.683 451.368 417.859 450.774 419.371 450.774C420.883 450.774 422.053 451.368 422.881 452.556C423.721 453.732 424.141 455.31 424.141 457.29C424.141 459.27 423.721 460.854 422.881 462.042ZM416.779 461.196C417.403 462.12 418.267 462.582 419.371 462.582C420.475 462.582 421.333 462.12 421.945 461.196C422.569 460.272 422.881 458.97 422.881 457.29C422.881 455.61 422.569 454.308 421.945 453.384C421.333 452.46 420.475 451.998 419.371 451.998C418.267 451.998 417.403 452.46 416.779 453.384C416.167 454.308 415.861 455.61 415.861 457.29C415.861 458.97 416.167 460.272 416.779 461.196ZM428.288 450.99H429.368V463.59H428.108V452.376L425.281 453.222L424.958 452.142L428.288 450.99ZM439.805 454.932C439.805 455.88 439.547 456.72 439.031 457.452L434.909 463.59H433.487L436.583 458.982C436.259 459.054 435.923 459.09 435.575 459.09C434.339 459.09 433.325 458.706 432.533 457.938C431.741 457.158 431.345 456.156 431.345 454.932C431.345 453.708 431.741 452.712 432.533 451.944C433.325 451.164 434.339 450.774 435.575 450.774C436.811 450.774 437.825 451.164 438.617 451.944C439.409 452.712 439.805 453.708 439.805 454.932ZM433.415 452.808C432.875 453.348 432.605 454.056 432.605 454.932C432.605 455.808 432.875 456.516 433.415 457.056C433.967 457.596 434.687 457.866 435.575 457.866C436.463 457.866 437.177 457.596 437.717 457.056C438.269 456.516 438.545 455.808 438.545 454.932C438.545 454.056 438.269 453.348 437.717 452.808C437.177 452.268 436.463 451.998 435.575 451.998C434.687 451.998 433.967 452.268 433.415 452.808Z" fill="white"/>
<path d="M131.473 463.59V462.456L136.009 457.884C137.305 456.588 137.953 455.478 137.953 454.554C137.953 453.75 137.701 453.126 137.197 452.682C136.705 452.226 136.111 451.998 135.415 451.998C134.119 451.998 133.177 452.592 132.589 453.78L131.527 453.15C131.923 452.37 132.463 451.782 133.147 451.386C133.831 450.978 134.587 450.774 135.415 450.774C136.423 450.774 137.305 451.116 138.061 451.8C138.829 452.472 139.213 453.39 139.213 454.554C139.213 455.286 139.009 455.988 138.601 456.66C138.193 457.332 137.617 458.04 136.873 458.784L133.273 462.366H139.483V463.59H131.473ZM149.214 462.042C148.386 463.218 147.216 463.806 145.704 463.806C144.192 463.806 143.016 463.218 142.176 462.042C141.348 460.854 140.934 459.27 140.934 457.29C140.934 455.31 141.348 453.732 142.176 452.556C143.016 451.368 144.192 450.774 145.704 450.774C147.216 450.774 148.386 451.368 149.214 452.556C150.054 453.732 150.474 455.31 150.474 457.29C150.474 459.27 150.054 460.854 149.214 462.042ZM143.112 461.196C143.736 462.12 144.6 462.582 145.704 462.582C146.808 462.582 147.666 462.12 148.278 461.196C148.902 460.272 149.214 458.97 149.214 457.29C149.214 455.61 148.902 454.308 148.278 453.384C147.666 452.46 146.808 451.998 145.704 451.998C144.6 451.998 143.736 452.46 143.112 453.384C142.5 454.308 142.194 455.61 142.194 457.29C142.194 458.97 142.5 460.272 143.112 461.196ZM154.621 450.99H155.701V463.59H154.441V452.376L151.615 453.222L151.291 452.142L154.621 450.99ZM161.908 456.066C163.084 456.066 164.08 456.414 164.896 457.11C165.724 457.794 166.138 458.736 166.138 459.936C166.138 461.136 165.724 462.084 164.896 462.78C164.08 463.464 163.084 463.806 161.908 463.806C160.96 463.806 160.114 463.578 159.37 463.122C158.626 462.654 158.122 461.988 157.858 461.124L158.92 460.512C159.1 461.184 159.454 461.7 159.982 462.06C160.522 462.408 161.164 462.582 161.908 462.582C162.772 462.582 163.48 462.354 164.032 461.898C164.596 461.43 164.878 460.776 164.878 459.936C164.878 459.096 164.596 458.448 164.032 457.992C163.48 457.524 162.772 457.29 161.908 457.29H158.488L158.938 450.99H165.688V452.178H160.054L159.784 456.066H161.908ZM168.298 458.604V457.452H174.778V458.604H168.298ZM176.93 463.59V462.456L181.466 457.884C182.762 456.588 183.41 455.478 183.41 454.554C183.41 453.75 183.158 453.126 182.654 452.682C182.162 452.226 181.568 451.998 180.872 451.998C179.576 451.998 178.634 452.592 178.046 453.78L176.984 453.15C177.38 452.37 177.92 451.782 178.604 451.386C179.288 450.978 180.044 450.774 180.872 450.774C181.88 450.774 182.762 451.116 183.518 451.8C184.286 452.472 184.67 453.39 184.67 454.554C184.67 455.286 184.466 455.988 184.058 456.66C183.65 457.332 183.074 458.04 182.33 458.784L178.73 462.366H184.94V463.59H176.93ZM194.671 462.042C193.843 463.218 192.673 463.806 191.161 463.806C189.649 463.806 188.473 463.218 187.633 462.042C186.805 460.854 186.391 459.27 186.391 457.29C186.391 455.31 186.805 453.732 187.633 452.556C188.473 451.368 189.649 450.774 191.161 450.774C192.673 450.774 193.843 451.368 194.671 452.556C195.511 453.732 195.931 455.31 195.931 457.29C195.931 459.27 195.511 460.854 194.671 462.042ZM188.569 461.196C189.193 462.12 190.057 462.582 191.161 462.582C192.265 462.582 193.123 462.12 193.735 461.196C194.359 460.272 194.671 458.97 194.671 457.29C194.671 455.61 194.359 454.308 193.735 453.384C193.123 452.46 192.265 451.998 191.161 451.998C190.057 451.998 189.193 452.46 188.569 453.384C187.957 454.308 187.651 455.61 187.651 457.29C187.651 458.97 187.957 460.272 188.569 461.196ZM200.078 450.99H201.158V463.59H199.898V452.376L197.072 453.222L196.748 452.142L200.078 450.99ZM202.955 450.99H210.695V452.178L205.943 463.59H204.629L209.381 452.178H202.955V450.99Z" fill="white"/>
<path d="M43.7962 328.59V327.456L48.3322 322.884C49.6282 321.588 50.2762 320.478 50.2762 319.554C50.2762 318.75 50.0242 318.126 49.5202 317.682C49.0282 317.226 48.4342 316.998 47.7382 316.998C46.4422 316.998 45.5002 317.592 44.9122 318.78L43.8502 318.15C44.2462 317.37 44.7862 316.782 45.4702 316.386C46.1542 315.978 46.9102 315.774 47.7382 315.774C48.7462 315.774 49.6282 316.116 50.3842 316.8C51.1522 317.472 51.5362 318.39 51.5362 319.554C51.5362 320.286 51.3322 320.988 50.9242 321.66C50.5162 322.332 49.9402 323.04 49.1962 323.784L45.5962 327.366H51.8062V328.59H43.7962ZM61.5374 327.042C60.7094 328.218 59.5394 328.806 58.0274 328.806C56.5154 328.806 55.3394 328.218 54.4994 327.042C53.6714 325.854 53.2574 324.27 53.2574 322.29C53.2574 320.31 53.6714 318.732 54.4994 317.556C55.3394 316.368 56.5154 315.774 58.0274 315.774C59.5394 315.774 60.7094 316.368 61.5374 317.556C62.3774 318.732 62.7974 320.31 62.7974 322.29C62.7974 324.27 62.3774 325.854 61.5374 327.042ZM55.4354 326.196C56.0594 327.12 56.9234 327.582 58.0274 327.582C59.1314 327.582 59.9894 327.12 60.6014 326.196C61.2254 325.272 61.5374 323.97 61.5374 322.29C61.5374 320.61 61.2254 319.308 60.6014 318.384C59.9894 317.46 59.1314 316.998 58.0274 316.998C56.9234 316.998 56.0594 317.46 55.4354 318.384C54.8234 319.308 54.5174 320.61 54.5174 322.29C54.5174 323.97 54.8234 325.272 55.4354 326.196ZM66.9438 315.99H68.0238V328.59H66.7638V317.376L63.9377 318.222L63.6138 317.142L66.9438 315.99ZM70.1809 328.59V327.456L74.7169 322.884C76.0129 321.588 76.6609 320.478 76.6609 319.554C76.6609 318.75 76.4089 318.126 75.9049 317.682C75.4129 317.226 74.8189 316.998 74.1229 316.998C72.8269 316.998 71.8849 317.592 71.2969 318.78L70.2349 318.15C70.6309 317.37 71.1709 316.782 71.8549 316.386C72.5389 315.978 73.2949 315.774 74.1229 315.774C75.1309 315.774 76.0129 316.116 76.7689 316.8C77.5369 317.472 77.9209 318.39 77.9209 319.554C77.9209 320.286 77.7169 320.988 77.3089 321.66C76.9009 322.332 76.3249 323.04 75.5809 323.784L71.9809 327.366H78.1909V328.59H70.1809ZM80.358 323.604V322.452H86.838V323.604H80.358ZM88.9895 328.59V327.456L93.5255 322.884C94.8215 321.588 95.4695 320.478 95.4695 319.554C95.4695 318.75 95.2175 318.126 94.7135 317.682C94.2215 317.226 93.6275 316.998 92.9315 316.998C91.6355 316.998 90.6935 317.592 90.1055 318.78L89.0435 318.15C89.4395 317.37 89.9795 316.782 90.6635 316.386C91.3475 315.978 92.1035 315.774 92.9315 315.774C93.9395 315.774 94.8215 316.116 95.5775 316.8C96.3455 317.472 96.7295 318.39 96.7295 319.554C96.7295 320.286 96.5255 320.988 96.1175 321.66C95.7095 322.332 95.1335 323.04 94.3895 323.784L90.7895 327.366H96.9995V328.59H88.9895ZM106.731 327.042C105.903 328.218 104.733 328.806 103.221 328.806C101.709 328.806 100.533 328.218 99.6928 327.042C98.8648 325.854 98.4508 324.27 98.4508 322.29C98.4508 320.31 98.8648 318.732 99.6928 317.556C100.533 316.368 101.709 315.774 103.221 315.774C104.733 315.774 105.903 316.368 106.731 317.556C107.571 318.732 107.991 320.31 107.991 322.29C107.991 324.27 107.571 325.854 106.731 327.042ZM100.629 326.196C101.253 327.12 102.117 327.582 103.221 327.582C104.325 327.582 105.183 327.12 105.795 326.196C106.419 325.272 106.731 323.97 106.731 322.29C106.731 320.61 106.419 319.308 105.795 318.384C105.183 317.46 104.325 316.998 103.221 316.998C102.117 316.998 101.253 317.46 100.629 318.384C100.017 319.308 99.7108 320.61 99.7108 322.29C99.7108 323.97 100.017 325.272 100.629 326.196ZM112.137 315.99H113.217V328.59H111.957V317.376L109.131 318.222L108.807 317.142L112.137 315.99ZM124.644 324.882V326.07H123.024V328.59H121.764V326.07H115.104V324.882L119.784 315.99H121.17L116.49 324.882H121.764V321.03H123.024V324.882H124.644Z" fill="white"/>
<path d="M69.0078 194.374C70.2918 194.374 71.3838 194.83 72.2838 195.742C73.1958 196.654 73.6518 197.77 73.6518 199.09C73.6518 200.41 73.1958 201.526 72.2838 202.438C71.3838 203.35 70.2918 203.806 69.0078 203.806C67.4118 203.806 66.1998 203.146 65.3718 201.826V207.19H64.1838V194.59H65.3718V196.354C66.1998 195.034 67.4118 194.374 69.0078 194.374ZM66.3978 201.628C67.0818 202.312 67.9218 202.654 68.9178 202.654C69.9138 202.654 70.7538 202.312 71.4378 201.628C72.1218 200.932 72.4638 200.086 72.4638 199.09C72.4638 198.094 72.1218 197.254 71.4378 196.57C70.7538 195.874 69.9138 195.526 68.9178 195.526C67.9218 195.526 67.0818 195.874 66.3978 196.57C65.7138 197.254 65.3718 198.094 65.3718 199.09C65.3718 200.086 65.7138 200.932 66.3978 201.628ZM83.3672 194.59H84.5552V203.59H83.3672V201.826C82.5392 203.146 81.3272 203.806 79.7312 203.806C78.4472 203.806 77.3492 203.35 76.4372 202.438C75.5372 201.526 75.0872 200.41 75.0872 199.09C75.0872 197.77 75.5372 196.654 76.4372 195.742C77.3492 194.83 78.4472 194.374 79.7312 194.374C81.3272 194.374 82.5392 195.034 83.3672 196.354V194.59ZM77.3012 201.628C77.9852 202.312 78.8252 202.654 79.8212 202.654C80.8172 202.654 81.6572 202.312 82.3412 201.628C83.0252 200.932 83.3672 200.086 83.3672 199.09C83.3672 198.094 83.0252 197.254 82.3412 196.57C81.6572 195.874 80.8172 195.526 79.8212 195.526C78.8252 195.526 77.9852 195.874 77.3012 196.57C76.6172 197.254 76.2752 198.094 76.2752 199.09C76.2752 200.086 76.6172 200.932 77.3012 201.628ZM93.4425 194.59H94.6305V203.59H93.4425V199.666H88.2585V203.59H87.0705V194.59H88.2585V198.514H93.4425V194.59ZM101.301 194.374C102.633 194.374 103.707 194.848 104.523 195.796C105.351 196.732 105.765 197.842 105.765 199.126C105.765 199.258 105.753 199.444 105.729 199.684H97.8268C97.9468 200.596 98.3308 201.322 98.9788 201.862C99.6388 202.39 100.449 202.654 101.409 202.654C102.093 202.654 102.681 202.516 103.173 202.24C103.677 201.952 104.055 201.58 104.307 201.124L105.351 201.736C104.955 202.372 104.415 202.876 103.731 203.248C103.047 203.62 102.267 203.806 101.391 203.806C99.9748 203.806 98.8228 203.362 97.9348 202.474C97.0468 201.586 96.6028 200.458 96.6028 199.09C96.6028 197.746 97.0408 196.624 97.9168 195.724C98.7928 194.824 99.9208 194.374 101.301 194.374ZM101.301 195.526C100.365 195.526 99.5788 195.808 98.9428 196.372C98.3188 196.924 97.9468 197.644 97.8268 198.532H104.541C104.421 197.584 104.055 196.846 103.443 196.318C102.831 195.79 102.117 195.526 101.301 195.526ZM111.813 194.374C113.145 194.374 114.219 194.848 115.035 195.796C115.863 196.732 116.277 197.842 116.277 199.126C116.277 199.258 116.265 199.444 116.241 199.684H108.339C108.459 200.596 108.843 201.322 109.491 201.862C110.151 202.39 110.961 202.654 111.921 202.654C112.605 202.654 113.193 202.516 113.685 202.24C114.189 201.952 114.567 201.58 114.819 201.124L115.863 201.736C115.467 202.372 114.927 202.876 114.243 203.248C113.559 203.62 112.779 203.806 111.903 203.806C110.487 203.806 109.335 203.362 108.447 202.474C107.559 201.586 107.115 200.458 107.115 199.09C107.115 197.746 107.553 196.624 108.429 195.724C109.305 194.824 110.433 194.374 111.813 194.374ZM111.813 195.526C110.877 195.526 110.091 195.808 109.455 196.372C108.831 196.924 108.459 197.644 108.339 198.532H115.053C114.933 197.584 114.567 196.846 113.955 196.318C113.343 195.79 112.629 195.526 111.813 195.526ZM122.126 203.59V202.456L126.662 197.884C127.958 196.588 128.606 195.478 128.606 194.554C128.606 193.75 128.354 193.126 127.85 192.682C127.358 192.226 126.764 191.998 126.068 191.998C124.772 191.998 123.83 192.592 123.242 193.78L122.18 193.15C122.576 192.37 123.116 191.782 123.8 191.386C124.484 190.978 125.24 190.774 126.068 190.774C127.076 190.774 127.958 191.116 128.714 191.8C129.482 192.472 129.866 193.39 129.866 194.554C129.866 195.286 129.662 195.988 129.254 196.66C128.846 197.332 128.27 198.04 127.526 198.784L123.926 202.366H130.136V203.59H122.126ZM139.868 202.042C139.04 203.218 137.87 203.806 136.358 203.806C134.846 203.806 133.67 203.218 132.83 202.042C132.002 200.854 131.588 199.27 131.588 197.29C131.588 195.31 132.002 193.732 132.83 192.556C133.67 191.368 134.846 190.774 136.358 190.774C137.87 190.774 139.04 191.368 139.868 192.556C140.708 193.732 141.128 195.31 141.128 197.29C141.128 199.27 140.708 200.854 139.868 202.042ZM133.766 201.196C134.39 202.12 135.254 202.582 136.358 202.582C137.462 202.582 138.32 202.12 138.932 201.196C139.556 200.272 139.868 198.97 139.868 197.29C139.868 195.61 139.556 194.308 138.932 193.384C138.32 192.46 137.462 191.998 136.358 191.998C135.254 191.998 134.39 192.46 133.766 193.384C133.154 194.308 132.848 195.61 132.848 197.29C132.848 198.97 133.154 200.272 133.766 201.196ZM145.274 190.99H146.354V203.59H145.094V192.376L142.268 193.222L141.944 192.142L145.274 190.99ZM148.511 203.59V202.456L153.047 197.884C154.343 196.588 154.991 195.478 154.991 194.554C154.991 193.75 154.739 193.126 154.235 192.682C153.743 192.226 153.149 191.998 152.453 191.998C151.157 191.998 150.215 192.592 149.627 193.78L148.565 193.15C148.961 192.37 149.501 191.782 150.185 191.386C150.869 190.978 151.625 190.774 152.453 190.774C153.461 190.774 154.343 191.116 155.099 191.8C155.867 192.472 156.251 193.39 156.251 194.554C156.251 195.286 156.047 195.988 155.639 196.66C155.231 197.332 154.655 198.04 153.911 198.784L150.311 202.366H156.521V203.59H148.511Z" fill="white"/>
<path d="M182.278 117.59H183.466V126.59H182.278V122.666H177.094V126.59H175.906V117.59H177.094V121.514H182.278V117.59ZM190.137 117.374C191.469 117.374 192.543 117.848 193.359 118.796C194.187 119.732 194.601 120.842 194.601 122.126C194.601 122.258 194.589 122.444 194.565 122.684H186.663C186.783 123.596 187.167 124.322 187.815 124.862C188.475 125.39 189.285 125.654 190.245 125.654C190.929 125.654 191.517 125.516 192.009 125.24C192.513 124.952 192.891 124.58 193.143 124.124L194.187 124.736C193.791 125.372 193.251 125.876 192.567 126.248C191.883 126.62 191.103 126.806 190.227 126.806C188.811 126.806 187.659 126.362 186.771 125.474C185.883 124.586 185.439 123.458 185.439 122.09C185.439 120.746 185.877 119.624 186.753 118.724C187.629 117.824 188.757 117.374 190.137 117.374ZM190.137 118.526C189.201 118.526 188.415 118.808 187.779 119.372C187.155 119.924 186.783 120.644 186.663 121.532H193.377C193.257 120.584 192.891 119.846 192.279 119.318C191.667 118.79 190.953 118.526 190.137 118.526ZM208.55 117.59V126.59H207.362V118.742H202.178V126.59H200.99V117.59H208.55ZM218.605 125.456C217.693 126.356 216.577 126.806 215.257 126.806C213.937 126.806 212.815 126.356 211.891 125.456C210.979 124.544 210.523 123.422 210.523 122.09C210.523 120.758 210.979 119.642 211.891 118.742C212.815 117.83 213.937 117.374 215.257 117.374C216.577 117.374 217.693 117.83 218.605 118.742C219.529 119.642 219.991 120.758 219.991 122.09C219.991 123.422 219.529 124.544 218.605 125.456ZM212.737 124.628C213.421 125.312 214.261 125.654 215.257 125.654C216.253 125.654 217.093 125.312 217.777 124.628C218.461 123.932 218.803 123.086 218.803 122.09C218.803 121.094 218.461 120.254 217.777 119.57C217.093 118.874 216.253 118.526 215.257 118.526C214.261 118.526 213.421 118.874 212.737 119.57C212.053 120.254 211.711 121.094 211.711 122.09C211.711 123.086 212.053 123.932 212.737 124.628ZM230.799 117.59V126.59L229.611 126.59V119.408L226.461 124.52H226.317L223.167 119.408V126.59H221.979V117.59H223.347L226.389 122.522L229.431 117.59H230.799ZM239.689 117.59H240.877V126.59H239.689V122.666H234.505V126.59H233.317V117.59H234.505V121.514H239.689V117.59ZM251.075 117.374C252.395 117.374 253.511 117.83 254.423 118.742C255.347 119.642 255.809 120.758 255.809 122.09C255.809 123.422 255.347 124.544 254.423 125.456C253.511 126.356 252.395 126.806 251.075 126.806C249.863 126.806 248.819 126.416 247.943 125.636C247.079 124.844 246.581 123.854 246.449 122.666H244.577V126.59H243.389V117.59H244.577V121.514H246.449C246.581 120.326 247.079 119.342 247.943 118.562C248.819 117.77 249.863 117.374 251.075 117.374ZM248.555 124.628C249.239 125.312 250.079 125.654 251.075 125.654C252.071 125.654 252.911 125.312 253.595 124.628C254.279 123.932 254.621 123.086 254.621 122.09C254.621 121.094 254.279 120.254 253.595 119.57C252.911 118.874 252.071 118.526 251.075 118.526C250.079 118.526 249.239 118.874 248.555 119.57C247.871 120.254 247.529 121.094 247.529 122.09C247.529 123.086 247.871 123.932 248.555 124.628Z" fill="white"/>
<path d="M322.797 110.59V109.456L327.333 104.884C328.629 103.588 329.277 102.478 329.277 101.554C329.277 100.75 329.025 100.126 328.521 99.6818C328.029 99.2258 327.435 98.9978 326.739 98.9978C325.443 98.9978 324.501 99.5918 323.913 100.78L322.851 100.15C323.247 99.3698 323.787 98.7818 324.471 98.3858C325.155 97.9778 325.911 97.7738 326.739 97.7738C327.747 97.7738 328.629 98.1158 329.385 98.7998C330.153 99.4718 330.537 100.39 330.537 101.554C330.537 102.286 330.333 102.988 329.925 103.66C329.517 104.332 328.941 105.04 328.197 105.784L324.597 109.366H330.807V110.59H322.797ZM340.538 109.042C339.71 110.218 338.54 110.806 337.028 110.806C335.516 110.806 334.34 110.218 333.5 109.042C332.672 107.854 332.258 106.27 332.258 104.29C332.258 102.31 332.672 100.732 333.5 99.5558C334.34 98.3678 335.516 97.7738 337.028 97.7738C338.54 97.7738 339.71 98.3678 340.538 99.5558C341.378 100.732 341.798 102.31 341.798 104.29C341.798 106.27 341.378 107.854 340.538 109.042ZM334.436 108.196C335.06 109.12 335.924 109.582 337.028 109.582C338.132 109.582 338.99 109.12 339.602 108.196C340.226 107.272 340.538 105.97 340.538 104.29C340.538 102.61 340.226 101.308 339.602 100.384C338.99 99.4598 338.132 98.9978 337.028 98.9978C335.924 98.9978 335.06 99.4598 334.436 100.384C333.824 101.308 333.518 102.61 333.518 104.29C333.518 105.97 333.824 107.272 334.436 108.196ZM343.241 110.59V109.456L347.777 104.884C349.073 103.588 349.721 102.478 349.721 101.554C349.721 100.75 349.469 100.126 348.965 99.6818C348.473 99.2258 347.879 98.9978 347.183 98.9978C345.887 98.9978 344.945 99.5918 344.357 100.78L343.295 100.15C343.691 99.3698 344.231 98.7818 344.915 98.3858C345.599 97.9778 346.355 97.7738 347.183 97.7738C348.191 97.7738 349.073 98.1158 349.829 98.7998C350.597 99.4718 350.981 100.39 350.981 101.554C350.981 102.286 350.777 102.988 350.369 103.66C349.961 104.332 349.385 105.04 348.641 105.784L345.041 109.366H351.251V110.59H343.241ZM355.578 97.9898H356.658V110.59H355.398V99.3758L352.572 100.222L352.248 99.1418L355.578 97.9898Z" fill="white"/>
<defs>
<clipPath id="clip0">
<rect width="547" height="563" fill="white" transform="translate(16)"/>
</clipPath>
</defs>
</svg>
