<svg width="45" height="45" viewBox="0 0 45 45" fill="none" xmlns="http://www.w3.org/2000/svg">
<g clip-path="url(#clip0)">
<path d="M35.7437 21.8926C35.7332 26.1609 33.6153 30.2325 30.1003 32.6783C26.5028 35.1815 21.8295 35.7131 17.7386 34.1529C13.795 32.6489 10.778 29.1892 9.73292 25.126C8.65746 20.9447 9.78311 16.3916 12.653 13.1683C15.5494 9.91529 19.9021 8.32393 24.2274 8.8425C28.4388 9.34746 32.201 12.0118 34.2016 15.7183C35.2221 17.609 35.7384 19.7476 35.7437 21.8926C35.7453 22.5491 36.7676 22.5492 36.766 21.8926C36.7605 19.6457 36.2243 17.4342 35.2033 15.4313C34.2172 13.4968 32.7637 11.83 31.0299 10.5256C27.4419 7.82654 22.6116 7.0381 18.3262 8.35297C14.1071 9.64752 10.7075 12.9156 9.17265 17.0239C7.60453 21.2213 8.21607 26.0717 10.7168 29.7814C13.2016 33.4677 17.342 35.7939 21.787 36.0434C26.2315 36.2929 30.6361 34.3573 33.4763 30.9519C35.5941 28.4126 36.7579 25.1927 36.766 21.8925C36.7677 21.236 35.7454 21.2361 35.7437 21.8926Z" fill="#005893"/>
<path d="M5.66493 19.7025C5.67325 15.4042 7.34146 11.2384 10.3147 8.12231C13.2671 5.02797 17.3643 3.15336 21.6397 2.93082C25.9629 2.70576 30.2699 4.16904 33.5423 6.98475C36.7686 9.76071 38.8658 13.7259 39.3013 17.9459C39.3615 18.5294 39.3886 19.116 39.3897 19.7025C39.391 20.359 40.4133 20.3591 40.412 19.7025C40.4034 15.2635 38.7213 10.9632 35.7235 7.68058C32.7535 4.42828 28.6069 2.40357 24.2242 1.97197C19.7993 1.5362 15.2688 2.82435 11.7329 5.50402C8.24936 8.14408 5.80192 12.0119 4.97045 16.2983C4.75309 17.4188 4.64482 18.5616 4.64258 19.7025C4.64136 20.3591 5.66366 20.359 5.66493 19.7025Z" fill="#005893"/>
<path d="M4.62859 25.86C4.61807 26.1067 4.42607 26.1236 4.19109 26.1236C3.84604 26.1236 3.50094 26.1236 3.15584 26.1236C2.83454 26.1236 2.5133 26.1236 2.192 26.1236C1.98773 26.1236 1.82704 26.0688 1.82704 25.8565C1.82704 24.8536 1.82704 23.8508 1.82704 22.848C1.82704 21.4265 1.82704 20.0051 1.82704 18.5836C1.82704 18.4144 1.82704 18.2453 1.82704 18.076C1.82704 17.9387 1.82723 17.8301 1.9225 17.7618C2.0593 17.6636 2.33595 17.7036 2.53106 17.7036C2.9117 17.7036 3.29234 17.7036 3.67298 17.7036C3.90285 17.7036 4.13267 17.7036 4.36259 17.7036C4.54276 17.7036 4.62863 17.8366 4.62863 18.0136C4.62863 18.4062 4.62863 18.7988 4.62863 19.1915C4.62863 20.6986 4.62863 22.2057 4.62863 23.7128C4.62859 24.4285 4.62859 25.1442 4.62859 25.86C4.62859 26.5165 5.65089 26.5165 5.65089 25.86C5.65089 23.4628 5.65089 21.0655 5.65089 18.6683C5.65089 18.3166 5.69334 17.9164 5.58892 17.5757C5.42213 17.0314 4.89034 16.6855 4.33163 16.6855C4.05098 16.6855 3.77034 16.6855 3.48969 16.6855C3.12176 16.6855 2.75378 16.6855 2.38585 16.6855C2.03953 16.6855 1.71721 16.6957 1.40648 16.8827C0.84261 17.2219 0.804688 17.8075 0.804688 18.3812C0.804688 20.8587 0.804688 23.3362 0.804688 25.8137C0.804688 26.4303 1.20665 26.98 1.82348 27.1125C2.1863 27.1903 2.59888 27.1418 2.96583 27.1418C3.40513 27.1418 3.84448 27.1418 4.28378 27.1418C5.03527 27.1418 5.61847 26.6174 5.65084 25.86C5.67893 25.2032 4.65648 25.2059 4.62859 25.86Z" fill="#005893"/>
<path d="M43.2203 25.86C43.2098 26.1068 43.0179 26.1236 42.7829 26.1236C42.4378 26.1236 42.0927 26.1236 41.7476 26.1236C41.4263 26.1236 41.105 26.1236 40.7837 26.1236C40.5794 26.1236 40.4187 26.0688 40.4187 25.8565C40.4187 24.8536 40.4187 23.8508 40.4187 22.848C40.4187 21.4265 40.4187 20.0051 40.4187 18.5836C40.4187 18.4144 40.4187 18.2453 40.4187 18.076C40.4187 17.9388 40.419 17.8301 40.5142 17.7618C40.651 17.6636 40.9276 17.7036 41.1228 17.7036C41.5034 17.7036 41.884 17.7036 42.2647 17.7036C42.4945 17.7036 42.7244 17.7036 42.9543 17.7036C43.1345 17.7036 43.2203 17.8366 43.2203 18.0136C43.2203 18.4062 43.2203 18.7988 43.2203 19.1915C43.2203 20.6986 43.2203 22.2057 43.2203 23.7128C43.2203 24.4285 43.2203 25.1442 43.2203 25.86C43.2203 26.5165 44.2426 26.5165 44.2426 25.86C44.2426 23.4628 44.2426 21.0655 44.2426 18.6683C44.2426 18.3166 44.2851 17.9164 44.1807 17.5757C44.0139 17.0314 43.4821 16.6855 42.9234 16.6855C42.6428 16.6855 42.3621 16.6855 42.0815 16.6855C41.7135 16.6855 41.3456 16.6855 40.9776 16.6855C40.6313 16.6855 40.309 16.6957 39.9982 16.8827C39.4344 17.2219 39.3965 17.8075 39.3965 18.3812C39.3965 20.8587 39.3965 23.3362 39.3965 25.8137C39.3965 26.4303 39.7984 26.9801 40.4153 27.1125C40.7781 27.1903 41.1907 27.1418 41.5577 27.1418C41.997 27.1418 42.4363 27.1418 42.8756 27.1418C43.6271 27.1418 44.2103 26.6174 44.2427 25.86C44.2707 25.2032 43.2483 25.2059 43.2203 25.86Z" fill="#005893"/>
<path d="M23.3179 40.6804C23.3103 41.1229 23.1052 41.5507 22.7475 41.8065C22.439 42.0272 22.1243 42.0755 21.753 42.0755C21.0743 42.0755 20.24 42.205 19.7113 41.7723C18.9573 41.1551 19.0483 39.9915 19.862 39.4865C20.1609 39.301 20.4716 39.2853 20.8229 39.2853C21.1694 39.2853 21.516 39.2853 21.8625 39.2853C22.662 39.2853 23.304 39.8761 23.3179 40.6804C23.3292 41.3362 24.3515 41.3373 24.3402 40.6804C24.3181 39.4042 23.3685 38.4284 22.1167 38.2774C21.8101 38.2404 21.4869 38.2671 21.1792 38.2671C20.8229 38.2671 20.4751 38.2586 20.1218 38.3135C18.9228 38.4999 18.0725 39.7052 18.1743 40.8791C18.2826 42.1283 19.3383 43.0722 20.587 43.0936C21.1779 43.1038 21.797 43.1383 22.3824 43.0473C23.5214 42.8703 24.321 41.7885 24.3402 40.6804C24.3515 40.0234 23.3292 40.0245 23.3179 40.6804Z" fill="#005893"/>
<path d="M4.65235 25.0042C4.66228 29.5623 6.59428 33.9676 9.95668 37.0625C12.1373 39.0696 14.8638 40.4685 17.7713 41.0675C18.0439 41.1236 18.3227 40.9922 18.4001 40.7119C18.4703 40.4577 18.316 40.1419 18.0431 40.0857C13.7424 39.1997 9.9839 36.5126 7.76496 32.7374C6.38938 30.3972 5.68064 27.7125 5.6747 25.0041C5.67324 24.3477 4.65093 24.3475 4.65235 25.0042Z" fill="#005893"/>
</g>
<defs>
<clipPath id="clip0">
<rect width="45" height="45" fill="white"/>
</clipPath>
</defs>
</svg>
