<svg width="150" height="226" viewBox="0 0 150 226" fill="none" xmlns="http://www.w3.org/2000/svg">
<g filter="url(#filter0_d)">
<path d="M20 0H130V166.589L20 200V0Z" fill="white"/>
</g>
<path d="M38 88.6655H58.3472V84.1568H44.9366C46.7863 76.7578 58.116 75.1393 58.116 66.931C58.116 62.5378 55.1102 59.3008 48.7517 59.3008C44.821 59.3008 41.3527 60.4569 39.0405 61.613L40.4278 65.7749C42.5088 64.7344 44.9366 63.8095 47.9424 63.8095C50.2546 63.8095 52.4512 64.85 52.4512 67.509C52.4512 73.5207 39.1561 73.9832 38 88.6655ZM58.9253 81.4978H71.9891V88.6655H77.1916V81.4978H81.5847V77.1046H77.1916V59.3008H73.3765L58.9253 78.0295V81.4978ZM64.8214 77.3358L72.2204 67.3934C72.2204 68.2027 71.9891 70.7461 71.9891 73.0583V77.2202H68.5209C67.4804 77.2202 65.515 77.3358 64.8214 77.3358Z" fill="#005893"/>
<path d="M40.6051 46.9169V42.5381H41.6582C42.6005 42.5381 43.3764 42.649 43.9307 42.9815C44.485 43.3141 44.8176 43.8684 44.8176 44.7552C44.8176 46.2517 43.9307 46.9169 41.8245 46.9169H40.6051ZM38.0554 49.0231H41.7691C45.9261 49.0231 47.4226 47.194 47.4226 44.6443C47.4226 42.9261 46.7021 41.7621 45.4273 41.097C44.4296 40.5427 43.1547 40.3764 41.6028 40.3764H40.6051V37.0508H46.2032L46.8684 35H38V49.0231H38.0554ZM49.1409 49.0231H51.5797L54.739 44.4781C55.3487 43.6467 55.7921 42.8152 56.0693 42.3718H56.1247C56.0693 42.9815 56.0139 43.7575 56.0139 44.5335V48.9677H58.5081V38.9908H56.0693L52.9099 43.5358C52.3557 44.3672 51.8568 45.1986 51.5797 45.642H51.5243C51.5797 45.0323 51.6351 44.2564 51.6351 43.4804V39.0462H49.1409V49.0231ZM62.776 49.0231H65.3256V41.097H68.3187L68.9838 38.9908H59.7275V41.097H62.776V49.0231ZM69.8707 54.067H72.3649V49.0231C72.8637 49.1894 73.3626 49.2448 73.9169 49.2448C77.0762 49.2448 79.127 47.0831 79.127 43.9792C79.127 40.7644 77.2425 38.7136 73.6397 38.7136C72.254 38.7136 70.9238 38.9908 69.8152 39.3233V54.067H69.8707ZM72.3649 46.8614V40.9861C72.7529 40.8753 73.0854 40.8199 73.5289 40.8199C75.358 40.8199 76.5219 41.8176 76.5219 43.9792C76.5219 45.9192 75.5797 47.1386 73.6952 47.1386C73.1963 47.1386 72.8083 47.0277 72.3649 46.8614ZM80.6236 49.0231H83.0624L86.2217 44.4781C86.8314 43.6467 87.2748 42.8152 87.552 42.3718H87.6074C87.552 42.9815 87.4965 43.7575 87.4965 44.5335V48.9677H89.9908V38.9908H87.552L84.3926 43.5358C83.8383 44.3672 83.3395 45.1986 83.0624 45.642H83.0069C83.0624 45.0323 83.1178 44.2564 83.1178 43.4804V39.0462H80.6236V49.0231ZM91.9861 49.0231H94.5358V44.8661H96.0323C96.3095 44.8661 96.5866 45.1432 96.9192 45.8083L98.194 49.0231H100.91L99.0808 45.1986C98.7483 44.5335 98.4157 44.1455 97.9169 43.9792V43.9238C98.7483 43.4249 98.8591 41.9838 99.358 41.2633C99.5243 41.0416 99.746 40.9307 100.079 40.9307C100.245 40.9307 100.467 40.9307 100.633 41.0416V38.8799C100.356 38.7691 99.8568 38.7136 99.5797 38.7136C98.6928 38.7136 98.1386 39.0462 97.7506 39.6005C96.9192 40.8199 96.9192 42.9261 95.6998 42.9261H94.5358V38.9908H91.9861V49.0231ZM106.564 49.2448C107.949 49.2448 109.224 48.8014 110 48.2471L109.279 46.5289C108.559 46.9169 107.894 47.194 106.952 47.194C105.233 47.194 104.125 46.0855 104.125 44.0346C104.125 42.2055 105.233 40.7644 107.118 40.7644C108.115 40.7644 108.836 41.0416 109.557 41.5404V39.3788C109.002 39.0462 108.115 38.7136 106.841 38.7136C103.848 38.7136 101.52 40.9307 101.52 44.0901C101.52 46.9723 103.293 49.2448 106.564 49.2448Z" fill="#0BBBEF"/>
<path d="M98.8111 81.4964C104.476 81.4964 109.1 76.8721 109.1 71.2072C109.1 65.5423 104.476 60.918 98.8111 60.918C93.1462 60.918 88.5219 65.5423 88.5219 71.2072C88.6375 76.8721 93.1462 81.4964 98.8111 81.4964Z" stroke="#005893" stroke-width="1.7688"/>
<path d="M105.284 71.2078H99.6196V65.543H98.1167V72.7107H105.284V71.2078Z" fill="#005893"/>
<path d="M60.2807 119.196C58.806 119.196 57.588 118.706 56.6267 117.726C55.6653 116.746 55.1847 115.537 55.1847 114.1C55.1847 112.653 55.6653 111.445 56.6267 110.474C57.588 109.494 58.806 109.004 60.2807 109.004C61.1673 109.004 61.984 109.214 62.7307 109.634C63.4867 110.045 64.0747 110.605 64.4947 111.314L62.8287 112.28C62.586 111.841 62.2407 111.501 61.7927 111.258C61.3447 111.006 60.8407 110.88 60.2807 110.88C59.3287 110.88 58.5587 111.179 57.9707 111.776C57.392 112.373 57.1027 113.148 57.1027 114.1C57.1027 115.043 57.392 115.813 57.9707 116.41C58.5587 117.007 59.3287 117.306 60.2807 117.306C60.8407 117.306 61.3447 117.185 61.7927 116.942C62.25 116.69 62.5953 116.349 62.8287 115.92L64.4947 116.886C64.0747 117.595 63.4913 118.16 62.7447 118.58C61.998 118.991 61.1767 119.196 60.2807 119.196ZM71.2229 112V113.736H69.0389V119H67.2329V113.736H65.0209V112H71.2229ZM77.2339 112H79.0399V119H77.2339V118.174C76.6926 118.855 75.9319 119.196 74.9519 119.196C74.0186 119.196 73.2159 118.841 72.5439 118.132C71.8812 117.413 71.5499 116.536 71.5499 115.5C71.5499 114.464 71.8812 113.591 72.5439 112.882C73.2159 112.163 74.0186 111.804 74.9519 111.804C75.9319 111.804 76.6926 112.145 77.2339 112.826V112ZM73.9019 116.928C74.2659 117.292 74.7279 117.474 75.2879 117.474C75.8479 117.474 76.3099 117.292 76.6739 116.928C77.0472 116.555 77.2339 116.079 77.2339 115.5C77.2339 114.921 77.0472 114.45 76.6739 114.086C76.3099 113.713 75.8479 113.526 75.2879 113.526C74.7279 113.526 74.2659 113.713 73.9019 114.086C73.5379 114.45 73.3559 114.921 73.3559 115.5C73.3559 116.079 73.5379 116.555 73.9019 116.928ZM86.1936 112V113.736H84.0096V119H82.2036V113.736H79.9916V112H86.1936ZM90.322 114.24C91.1154 114.24 91.7547 114.459 92.24 114.898C92.7254 115.327 92.968 115.901 92.968 116.62C92.968 117.339 92.7254 117.917 92.24 118.356C91.7547 118.785 91.1154 119 90.322 119H87.158V112H88.964V114.24H90.322ZM90.336 117.404C90.588 117.404 90.7934 117.334 90.952 117.194C91.12 117.045 91.204 116.853 91.204 116.62C91.204 116.387 91.12 116.195 90.952 116.046C90.7934 115.897 90.588 115.822 90.336 115.822H88.964V117.404H90.336ZM44.2347 130V137H42.4287V131.694H39.6427V137H37.8367V130H44.2347ZM51.2095 130H53.0155V137H51.2095V136.174C50.6681 136.855 49.9075 137.196 48.9275 137.196C47.9941 137.196 47.1915 136.841 46.5195 136.132C45.8568 135.413 45.5255 134.536 45.5255 133.5C45.5255 132.464 45.8568 131.591 46.5195 130.882C47.1915 130.163 47.9941 129.804 48.9275 129.804C49.9075 129.804 50.6681 130.145 51.2095 130.826V130ZM47.8775 134.928C48.2415 135.292 48.7035 135.474 49.2635 135.474C49.8235 135.474 50.2855 135.292 50.6495 134.928C51.0228 134.555 51.2095 134.079 51.2095 133.5C51.2095 132.921 51.0228 132.45 50.6495 132.086C50.2855 131.713 49.8235 131.526 49.2635 131.526C48.7035 131.526 48.2415 131.713 47.8775 132.086C47.5135 132.45 47.3315 132.921 47.3315 133.5C47.3315 134.079 47.5135 134.555 47.8775 134.928ZM58.7271 129.804C59.6698 129.804 60.4725 130.163 61.1351 130.882C61.8071 131.591 62.1431 132.464 62.1431 133.5C62.1431 134.536 61.8071 135.413 61.1351 136.132C60.4725 136.841 59.6698 137.196 58.7271 137.196C57.7471 137.196 56.9911 136.855 56.4591 136.174V139.8H54.6531V130H56.4591V130.826C56.9911 130.145 57.7471 129.804 58.7271 129.804ZM57.0051 134.928C57.3691 135.292 57.8311 135.474 58.3911 135.474C58.9511 135.474 59.4131 135.292 59.7771 134.928C60.1505 134.555 60.3371 134.079 60.3371 133.5C60.3371 132.921 60.1505 132.45 59.7771 132.086C59.4131 131.713 58.9511 131.526 58.3911 131.526C57.8311 131.526 57.3691 131.713 57.0051 132.086C56.6411 132.45 56.4591 132.921 56.4591 133.5C56.4591 134.079 56.6411 134.555 57.0051 134.928ZM68.6594 130V131.736H66.4754V137H64.6694V131.736H62.4574V130H68.6594ZM74.2159 130H76.0219V137H74.2159V134.34H71.4299V137H69.6239V130H71.4299V132.646H74.2159V130ZM79.2026 134.242C79.4453 135.119 80.1033 135.558 81.1766 135.558C81.8673 135.558 82.3899 135.325 82.7446 134.858L84.2006 135.698C83.5099 136.697 82.4926 137.196 81.1486 137.196C79.9913 137.196 79.0626 136.846 78.3626 136.146C77.6626 135.446 77.3126 134.564 77.3126 133.5C77.3126 132.445 77.6579 131.568 78.3486 130.868C79.0393 130.159 79.9259 129.804 81.0086 129.804C82.0353 129.804 82.8799 130.159 83.5426 130.868C84.2146 131.577 84.5506 132.455 84.5506 133.5C84.5506 133.733 84.5273 133.981 84.4806 134.242H79.2026ZM79.1746 132.842H82.7446C82.6419 132.366 82.4273 132.011 82.1006 131.778C81.7833 131.545 81.4193 131.428 81.0086 131.428C80.5233 131.428 80.1219 131.554 79.8046 131.806C79.4873 132.049 79.2773 132.394 79.1746 132.842ZM89.8854 129.804C90.828 129.804 91.6307 130.163 92.2934 130.882C92.9654 131.591 93.3014 132.464 93.3014 133.5C93.3014 134.536 92.9654 135.413 92.2934 136.132C91.6307 136.841 90.828 137.196 89.8854 137.196C88.9054 137.196 88.1494 136.855 87.6174 136.174V139.8H85.8114V130H87.6174V130.826C88.1494 130.145 88.9054 129.804 89.8854 129.804ZM88.1634 134.928C88.5274 135.292 88.9894 135.474 89.5494 135.474C90.1094 135.474 90.5714 135.292 90.9354 134.928C91.3087 134.555 91.4954 134.079 91.4954 133.5C91.4954 132.921 91.3087 132.45 90.9354 132.086C90.5714 131.713 90.1094 131.526 89.5494 131.526C88.9894 131.526 88.5274 131.713 88.1634 132.086C87.7994 132.45 87.6174 132.921 87.6174 133.5C87.6174 134.079 87.7994 134.555 88.1634 134.928ZM100.539 136.132C99.8204 136.841 98.943 137.196 97.907 137.196C96.871 137.196 95.9937 136.841 95.275 136.132C94.5657 135.413 94.211 134.536 94.211 133.5C94.211 132.464 94.5657 131.591 95.275 130.882C95.9937 130.163 96.871 129.804 97.907 129.804C98.943 129.804 99.8204 130.163 100.539 130.882C101.258 131.591 101.617 132.464 101.617 133.5C101.617 134.536 101.258 135.413 100.539 136.132ZM96.549 134.886C96.913 135.25 97.3657 135.432 97.907 135.432C98.4484 135.432 98.901 135.25 99.265 134.886C99.629 134.522 99.811 134.06 99.811 133.5C99.811 132.94 99.629 132.478 99.265 132.114C98.901 131.75 98.4484 131.568 97.907 131.568C97.3657 131.568 96.913 131.75 96.549 132.114C96.1944 132.478 96.017 132.94 96.017 133.5C96.017 134.06 96.1944 134.522 96.549 134.886ZM110.168 130V137H108.418V132.912L106.64 135.712H106.416L104.624 132.884V137H102.888V130H104.666L106.528 132.94L108.39 130H110.168Z" fill="#2FC7F7"/>
<defs>
<filter id="filter0_d" x="0" y="-14" width="150" height="240" filterUnits="userSpaceOnUse" color-interpolation-filters="sRGB">
<feFlood flood-opacity="0" result="BackgroundImageFix"/>
<feColorMatrix in="SourceAlpha" type="matrix" values="0 0 0 0 0 0 0 0 0 0 0 0 0 0 0 0 0 0 127 0"/>
<feOffset dy="6"/>
<feGaussianBlur stdDeviation="10"/>
<feColorMatrix type="matrix" values="0 0 0 0 0 0 0 0 0 0 0 0 0 0 0 0 0 0 0.25 0"/>
<feBlend mode="normal" in2="BackgroundImageFix" result="effect1_dropShadow"/>
<feBlend mode="normal" in="SourceGraphic" in2="effect1_dropShadow" result="shape"/>
</filter>
</defs>
</svg>
