<svg width="44" height="31" viewBox="0 0 44 31" fill="none" xmlns="http://www.w3.org/2000/svg">
<path d="M0 29.1599C0 27.6704 0.370414 26.2906 1.11227 25.0201C1.85361 23.7496 2.86406 22.7459 4.14363 22.009C5.42268 21.2727 6.81174 20.9037 8.3113 20.9037H9.77812V21.8754H8.3113C6.97494 21.8754 5.74858 22.2032 4.63274 22.8587C3.51689 23.5143 2.6282 24.3966 1.96821 25.5054C1.30822 26.6143 0.978221 27.8325 0.978221 29.1594V30.6159H0V29.1599ZM4.6445 14.9675C3.97581 14.5716 3.44219 14.0415 3.04313 13.3773C2.64355 12.7136 2.44402 11.9859 2.44402 11.1921C2.44402 10.3993 2.64355 9.67104 3.04313 9.00683C3.44219 8.34262 3.97581 7.81308 4.6445 7.41617C5.31268 7.01978 6.04533 6.82108 6.84448 6.82108C7.64261 6.82108 8.37576 7.01978 9.04445 7.41617C9.71263 7.81308 10.2463 8.34262 10.6458 9.00683C11.0444 9.67104 11.2444 10.3993 11.2444 11.1921C11.2444 11.9859 11.0444 12.7136 10.6458 13.3773C10.2463 14.0415 9.71263 14.5716 9.04445 14.9675C8.37576 15.3644 7.64261 15.5631 6.84448 15.5631C6.04533 15.5631 5.31268 15.3644 4.6445 14.9675ZM8.55534 14.1305C9.0772 13.8235 9.49263 13.4104 9.80268 12.892C10.1117 12.3736 10.2667 11.8075 10.2667 11.1921C10.2667 10.5772 10.1117 10.0105 9.80268 9.49216C9.49314 8.97431 9.0772 8.56165 8.55534 8.25368C8.03349 7.94673 7.46354 7.79275 6.84448 7.79275C6.2249 7.79275 5.65496 7.94673 5.1331 8.25368C4.61125 8.56114 4.19581 8.97431 3.88628 9.49216C3.57675 10.0105 3.42173 10.5772 3.42173 11.1921C3.42173 11.8075 3.57675 12.3736 3.88628 12.892C4.1953 13.4104 4.61125 13.823 5.1331 14.1305C5.65496 14.4379 6.2249 14.5914 6.84448 14.5914C7.46354 14.5914 8.03349 14.4379 8.55534 14.1305ZM8.7999 29.1599C8.7999 27.6704 9.17031 26.2906 9.91216 25.0201C10.6535 23.7496 11.664 22.7459 12.943 22.009C14.2226 21.2727 15.6116 20.9037 17.1107 20.9037H26.8883C28.3873 20.9037 29.7769 21.2727 31.056 22.009C32.3355 22.7459 33.346 23.7496 34.0873 25.0201C34.8287 26.2906 35.1996 27.6704 35.1996 29.1599V30.6164H34.2219V29.1599C34.2219 27.833 33.8919 26.6143 33.2319 25.5059C32.5719 24.3976 31.6837 23.5148 30.5674 22.8593C29.4505 22.2037 28.2246 21.8759 26.8888 21.8759H17.1107C15.7743 21.8759 14.548 22.2037 13.4321 22.8593C12.3153 23.5148 11.4276 24.3971 10.7676 25.5059C10.1076 26.6148 9.77761 27.833 9.77761 29.1599V30.6164H8.7999V29.1599ZM18.0766 14.5187C16.8784 13.823 15.9293 12.8793 15.2289 11.6901C14.528 10.4999 14.1776 9.20147 14.1776 7.79326C14.1776 6.38504 14.528 5.08559 15.2289 3.8959C15.9293 2.70621 16.8789 1.7635 18.0766 1.06778C19.2743 0.371552 20.582 0.0234375 21.9997 0.0234375C23.4174 0.0234375 24.7252 0.371552 25.9229 1.06778C27.1211 1.7635 28.0696 2.70672 28.7705 3.8959C29.471 5.08559 29.8219 6.38454 29.8219 7.79326C29.8219 9.20147 29.471 10.4999 28.7705 11.6901C28.0696 12.8798 27.1206 13.823 25.9229 14.5187C24.7252 15.2145 23.418 15.5631 21.9997 15.5631C20.5815 15.5631 19.2743 15.215 18.0766 14.5187ZM25.4343 13.6812C26.4856 13.0739 27.3165 12.2486 27.9274 11.2048C28.5383 10.1604 28.8442 9.02309 28.8442 7.79326C28.8442 6.56291 28.5383 5.42608 27.9274 4.38173C27.3165 3.33739 26.4856 2.51157 25.4343 1.90529C24.3829 1.29799 23.2379 0.994093 21.9997 0.994093C20.7611 0.994093 19.6166 1.29799 18.5652 1.90529C17.5138 2.51157 16.683 3.33739 16.0721 4.38173C15.4612 5.42608 15.1553 6.56291 15.1553 7.79326C15.1553 9.02309 15.4612 10.1604 16.0721 11.2048C16.683 12.2486 17.5138 13.0739 18.5652 13.6812C19.6166 14.288 20.7611 14.5914 21.9997 14.5914C23.2379 14.5914 24.3829 14.288 25.4343 13.6812ZM34.955 14.9675C34.2863 14.5716 33.7527 14.0415 33.3537 13.3773C32.9546 12.7136 32.7551 11.9859 32.7551 11.1921C32.7551 10.3993 32.9546 9.67104 33.3537 9.00683C33.7527 8.34262 34.2863 7.81308 34.955 7.41617C35.6232 7.01978 36.3564 6.82108 37.155 6.82108C37.9537 6.82108 38.6868 7.01978 39.355 7.41617C40.0232 7.81308 40.5568 8.34262 40.9564 9.00683C41.3554 9.67104 41.555 10.3993 41.555 11.1921C41.555 11.9859 41.3554 12.7136 40.9564 13.3773C40.5568 14.0415 40.0232 14.5716 39.355 14.9675C38.6868 15.3644 37.9537 15.5631 37.155 15.5631C36.3564 15.5631 35.6232 15.3644 34.955 14.9675ZM38.8664 14.1305C39.3877 13.8235 39.8032 13.4104 40.1132 12.892C40.4222 12.3736 40.5778 11.8075 40.5778 11.1921C40.5778 10.5772 40.4222 10.0105 40.1132 9.49216C39.8037 8.97431 39.3877 8.56165 38.8664 8.25368C38.3445 7.94673 37.7741 7.79275 37.155 7.79275C36.5354 7.79275 35.9655 7.94673 35.4436 8.25368C34.9218 8.56114 34.5063 8.97431 34.1968 9.49216C33.8873 10.0105 33.7328 10.5772 33.7328 11.1921C33.7328 11.8075 33.8873 12.3736 34.1968 12.892C34.5058 13.4104 34.9218 13.823 35.4436 14.1305C35.9655 14.4379 36.5354 14.5914 37.155 14.5914C37.7741 14.5914 38.3445 14.4379 38.8664 14.1305ZM43.0218 29.1599C43.0218 27.833 42.6913 26.6143 42.0318 25.5059C41.3718 24.3971 40.4831 23.5148 39.3673 22.8593C38.2504 22.2037 37.0245 21.8759 35.6887 21.8759H34.2219V20.9042H35.6887C37.1878 20.9042 38.5768 21.2732 39.8564 22.0096C41.1354 22.7464 42.1459 23.7501 42.8877 25.0206C43.6291 26.2911 44 27.6709 44 29.1604V30.6169H43.0223V29.1599H43.0218Z" fill="#005893"/>
</svg>
