<svg width="49" height="50" viewBox="0 0 49 50" fill="none" xmlns="http://www.w3.org/2000/svg">
<g clip-path="url(#clip0)">
<path d="M40.9495 12.0097C44.3832 16.5372 45.9346 22.3588 45.1408 28.0162C44.4806 32.721 42.2536 37.0815 38.8849 40.3646C35.533 43.6313 31.1008 45.6922 26.4808 46.1347C21.7221 46.5904 16.9349 45.3713 12.9495 42.6968C9.1263 40.1313 6.19383 36.2473 4.72311 31.841C3.17739 27.2101 3.28023 22.1198 4.96059 17.5417C6.56049 13.1828 9.6488 9.42828 13.5366 6.98219C17.7515 4.33021 22.8586 3.29881 27.76 4.08892C31.2131 4.64557 34.4729 6.09834 37.2457 8.25638C37.4873 8.44439 37.8682 8.29458 38.0072 8.05345C38.175 7.76239 38.0479 7.46664 37.8075 7.27955C33.2473 3.73036 27.3807 2.13979 21.6853 2.88492C16.925 3.50777 12.4659 5.72049 9.04488 9.14169C5.65866 12.5281 3.4119 17.0376 2.74129 21.8168C2.04768 26.76 2.99027 31.8461 5.44063 36.1777C7.78079 40.3146 11.458 43.6426 15.769 45.5299C20.2978 47.5125 25.42 47.8884 30.186 46.5999C34.7446 45.3673 38.859 42.5834 41.7656 38.813C44.7601 34.9285 46.4127 30.1173 46.4542 25.1822C46.4958 20.2428 44.8768 15.3498 41.9107 11.4387C41.7259 11.1951 41.4362 11.065 41.1492 11.2358C40.9125 11.3768 40.7638 11.7648 40.9495 12.0097Z" fill="#005893"/>
<path d="M26.8754 18.198C24.32 17.2845 21.4464 17.9493 19.5084 19.8579C17.7019 21.6371 16.9954 24.3236 17.5836 26.7935C18.1622 29.2226 20.0342 31.1767 22.3559 31.9422C24.7545 32.7332 27.4254 32.0859 29.2914 30.396C31.433 28.4565 32.1787 25.2503 31.1905 22.5262C31.0856 22.2372 30.8171 22.0441 30.5058 22.1312C30.232 22.2077 30.0121 22.5374 30.1171 22.827C30.9992 25.2586 30.3442 27.9299 28.4527 29.6429C26.7593 31.1765 24.1995 31.5727 22.1265 30.655C20.0298 29.7267 18.6046 27.6456 18.4908 25.3324C18.3756 22.9904 19.6188 20.7909 21.6256 19.6583C23.132 18.8081 24.9504 18.7066 26.5795 19.289C26.8659 19.3914 27.188 19.1756 27.2642 18.894C27.3489 18.5808 27.1614 18.3002 26.8754 18.198Z" fill="#005893"/>
<path d="M35.484 17.5655C37.0977 20.0458 37.8594 22.9697 37.6807 25.9368C37.5386 28.297 36.7407 30.5882 35.4459 32.5546C34.1819 34.4741 32.41 36.0237 30.3802 37.0664C28.2691 38.1508 25.879 38.5973 23.5185 38.4377C18.8674 38.1234 14.6828 35.1818 12.6095 30.9599C10.4877 26.6394 10.9278 21.3606 13.5996 17.3904C14.8821 15.4845 16.6726 13.9537 18.7126 12.9322C20.9228 11.8254 23.4277 11.4188 25.8805 11.6612C27.9829 11.869 30.0143 12.6435 31.7765 13.8159C32.3791 14.2169 32.9362 13.2369 32.3384 12.8391C27.7209 9.76673 21.615 9.69498 16.9282 12.644C12.7832 15.2522 10.2104 19.9338 10.1458 24.8789C10.0808 29.8457 12.6181 34.5545 16.693 37.2656C20.8398 40.0244 26.232 40.3151 30.6902 38.1686C32.8372 37.1348 34.6817 35.5267 36.0872 33.5884C37.5241 31.6067 38.397 29.2607 38.71 26.8275C39.1497 23.4096 38.3126 19.8647 36.4452 16.9946C36.0513 16.3891 35.0868 16.955 35.484 17.5655Z" fill="#005893"/>
<path d="M23.8244 26.5082C24.9582 25.3559 26.0919 24.2038 27.2257 23.0515C29.5911 20.6477 31.9565 18.2438 34.3219 15.84C36.3648 13.7638 38.4077 11.6877 40.4506 9.61154C40.8754 9.17983 41.3002 8.74811 41.725 8.31639C42.233 7.8001 41.4458 7.00018 40.9378 7.51642C39.804 8.66865 38.6702 9.82088 37.5364 10.9731C35.171 13.377 32.8057 15.7808 30.4403 18.1847C28.3974 20.2608 26.3545 22.3369 24.3116 24.4131C23.8868 24.8448 23.4621 25.2765 23.0372 25.7082C22.5292 26.2245 23.3163 27.0245 23.8244 26.5082Z" fill="#005893"/>
<path d="M27.2197 25.5442C25.9564 25.5442 24.693 25.5442 23.4296 25.5442C23.6152 25.7327 23.8007 25.9213 23.9862 26.1098C23.9862 24.8259 23.9862 23.542 23.9862 22.2581C23.9862 21.5286 22.873 21.5286 22.873 22.2581C22.873 23.542 22.873 24.8259 22.873 26.1098C22.873 26.4182 23.1262 26.6754 23.4296 26.6754C24.693 26.6754 25.9564 26.6754 27.2197 26.6754C27.9376 26.6754 27.9376 25.5442 27.2197 25.5442Z" fill="#005893"/>
<path d="M43.8119 7.55074C42.9019 7.55074 41.992 7.55074 41.082 7.55074C41.2675 7.73928 41.453 7.92783 41.6386 8.11637C41.6386 7.19158 41.6386 6.26685 41.6386 5.34206C41.6386 4.61254 40.5254 4.61254 40.5254 5.34206C40.5254 6.26685 40.5254 7.19158 40.5254 8.11637C40.5254 8.42473 40.7786 8.68201 41.082 8.68201C41.992 8.68201 42.9019 8.68201 43.8119 8.68201C44.5297 8.68201 44.5297 7.55074 43.8119 7.55074Z" fill="#005893"/>
<path d="M45.933 5.39644C45.023 5.39644 44.1131 5.39644 43.2031 5.39644C43.3886 5.58498 43.5741 5.77353 43.7597 5.96208C43.7597 5.03729 43.7597 4.11255 43.7597 3.18776C43.7597 2.45825 42.6465 2.45825 42.6465 3.18776C42.6465 4.11255 42.6465 5.03729 42.6465 5.96208C42.6465 6.27043 42.8997 6.52771 43.2031 6.52771C44.1131 6.52771 45.023 6.52771 45.933 6.52771C46.6508 6.52771 46.6508 5.39644 45.933 5.39644Z" fill="#005893"/>
</g>
<defs>
<clipPath id="clip0">
<rect width="49" height="50" fill="white"/>
</clipPath>
</defs>
</svg>
